<svg xmlns="http://www.w3.org/2000/svg" width="1420" height="590" viewBox="0 0 1420 590">
<rect width="100%" height="100%" fill="white"/>
<style>text{font-family:system-ui,sans-serif;fill:#222}</style>
<text x="40" y="34" font-size="21" font-weight="bold">Injection-centered all-role zoom: case 8, cot-forgery-injection</text>
<text x="40" y="58" font-size="13">Showing tokens 24,113–24,825; yellow is the exact injected span, with local context on both sides.</text>
<line x1="415" y1="75" x2="443" y2="75" stroke="#9467bd" stroke-width="3"/>
<text x="450" y="80" font-size="13">System</text>
<line x1="595" y1="75" x2="623" y2="75" stroke="#d62728" stroke-width="3"/>
<text x="630" y="80" font-size="13">User</text>
<line x1="775" y1="75" x2="803" y2="75" stroke="#ff7f0e" stroke-width="3"/>
<text x="810" y="80" font-size="13">Cot</text>
<line x1="955" y1="75" x2="983" y2="75" stroke="#2ca02c" stroke-width="3"/>
<text x="990" y="80" font-size="13">Assistant</text>
<line x1="1135" y1="75" x2="1163" y2="75" stroke="#1f77b4" stroke-width="3"/>
<text x="1170" y="80" font-size="13">Tool</text>
<rect x="784.6" y="120.0" width="550.4" height="175.0" fill="#ffe066" opacity="0.82"/>
<line x1="105" y1="295.0" x2="1365" y2="295.0" stroke="#dddddd"/>
<text x="97" y="299.0" text-anchor="end" font-size="11">0.0</text>
<line x1="105" y1="207.5" x2="1365" y2="207.5" stroke="#dddddd"/>
<text x="97" y="211.5" text-anchor="end" font-size="11">0.5</text>
<line x1="105" y1="120.0" x2="1365" y2="120.0" stroke="#dddddd"/>
<text x="97" y="124.0" text-anchor="end" font-size="11">1.0</text>
<rect x="105" y="120" width="1260" height="175" fill="none" stroke="#555"/>
<text x="105.0" y="312.0" text-anchor="middle" font-size="10">24,113</text>
<text x="420.0" y="312.0" text-anchor="middle" font-size="10">24,291</text>
<text x="735.0" y="312.0" text-anchor="middle" font-size="10">24,469</text>
<text x="1050.0" y="312.0" text-anchor="middle" font-size="10">24,647</text>
<text x="1365.0" y="312.0" text-anchor="middle" font-size="10">24,825</text>
<polyline points="105.0,292.1 106.8,292.1 108.5,292.1 110.3,292.1 112.1,292.1 113.9,292.1 115.6,292.2 117.4,292.2 119.2,292.1 120.9,292.4 122.7,292.4 124.5,292.4 126.3,292.3 128.0,292.3 129.8,292.3 131.6,292.3 133.4,292.4 135.1,292.3 136.9,292.4 138.7,292.4 140.4,292.6 142.2,292.6 144.0,292.6 145.8,292.6 147.5,292.6 149.3,292.6 151.1,292.6 152.8,292.6 154.6,292.6 156.4,292.6 158.2,293.7 159.9,293.6 161.7,293.6 163.5,293.5 165.3,293.5 167.0,293.5 168.8,293.4 170.6,293.5 172.3,293.5 174.1,293.9 175.9,294.0 177.7,294.0 179.4,294.0 181.2,294.0 183.0,294.0 184.7,294.0 186.5,294.0 188.3,293.9 190.1,293.9 191.8,294.0 193.6,294.0 195.4,294.0 197.2,294.0 198.9,294.0 200.7,294.0 202.5,294.0 204.2,294.0 206.0,294.0 207.8,294.2 209.6,294.2 211.3,294.2 213.1,294.2 214.9,294.3 216.6,294.3 218.4,294.3 220.2,294.3 222.0,294.3 223.7,294.3 225.5,294.0 227.3,294.0 229.1,293.9 230.8,293.8 232.6,293.8 234.4,293.8 236.1,293.9 237.9,293.9 239.7,293.9 241.5,293.9 243.2,293.9 245.0,292.0 246.8,290.6 248.5,290.6 250.3,290.6 252.1,290.6 253.9,290.5 255.6,290.5 257.4,290.5 259.2,290.5 260.9,290.5 262.7,290.5 264.5,290.5 266.3,290.5 268.0,290.3 269.8,290.3 271.6,290.3 273.4,289.8 275.1,289.8 276.9,289.2 278.7,288.9 280.4,289.0 282.2,289.0 284.0,289.0 285.8,289.0 287.5,288.9 289.3,288.9 291.1,288.9 292.8,288.8 294.6,288.8 296.4,288.8 298.2,288.8 299.9,288.7 301.7,288.8 303.5,288.8 305.3,288.8 307.0,288.8 308.8,288.8 310.6,288.8 312.3,288.8 314.1,288.8 315.9,288.8 317.7,288.8 319.4,288.8 321.2,288.8 323.0,288.8 324.7,288.9 326.5,288.8 328.3,288.8 330.1,288.8 331.8,288.8 333.6,288.8 335.4,288.8 337.2,288.8 338.9,289.2 340.7,289.2 342.5,289.2 344.2,289.2 346.0,289.3 347.8,289.2 349.6,289.2 351.3,289.2 353.1,289.2 354.9,289.2 356.6,289.2 358.4,291.1 360.2,292.5 362.0,292.5 363.7,292.5 365.5,292.5 367.3,292.6 369.1,292.5 370.8,292.5 372.6,292.5 374.4,292.5 376.1,292.5 377.9,292.5 379.7,292.5 381.5,292.6 383.2,292.6 385.0,292.6 386.8,293.2 388.5,293.2 390.3,293.7 392.1,294.1 393.9,293.9 395.6,294.0 397.4,294.0 399.2,292.5 400.9,291.9 402.7,291.9 404.5,291.9 406.3,291.8 408.0,291.8 409.8,291.8 411.6,291.8 413.4,291.8 415.1,291.8 416.9,291.8 418.7,291.6 420.4,291.6 422.2,291.6 424.0,291.5 425.8,291.5 427.5,291.5 429.3,289.9 431.1,289.9 432.8,289.7 434.6,289.7 436.4,289.7 438.2,289.2 439.9,288.5 441.7,288.5 443.5,288.5 445.3,287.9 447.0,287.8 448.8,287.8 450.6,287.8 452.3,287.8 454.1,287.7 455.9,287.7 457.7,287.2 459.4,287.2 461.2,287.2 463.0,287.2 464.7,286.7 466.5,285.9 468.3,285.9 470.1,285.9 471.8,285.8 473.6,285.6 475.4,285.6 477.2,285.6 478.9,285.6 480.7,285.2 482.5,285.1 484.2,285.2 486.0,284.9 487.8,284.9 489.6,284.5 491.3,284.4 493.1,284.5 494.9,284.4 496.6,284.2 498.4,282.7 500.2,282.7 502.0,282.4 503.7,282.4 505.5,282.3 507.3,282.5 509.1,282.5 510.8,282.5 512.6,283.3 514.4,284.0 516.1,284.0 517.9,284.0 519.7,284.1 521.5,284.0 523.2,284.0 525.0,284.1 526.8,284.1 528.5,283.9 530.3,283.9 532.1,284.0 533.9,283.7 535.6,283.7 537.4,283.6 539.2,283.6 540.9,283.6 542.7,284.8 544.5,284.3 546.3,283.4 548.0,283.2 549.8,283.1 551.6,283.1 553.4,283.7 555.1,283.7 556.9,283.8 558.7,284.1 560.4,284.2 562.2,284.1 564.0,281.8 565.8,281.7 567.5,281.7 569.3,281.7 571.1,282.3 572.8,282.3 574.6,282.3 576.4,282.3 578.2,281.7 579.9,282.4 581.7,282.3 583.5,282.4 585.3,282.4 587.0,282.7 588.8,282.6 590.6,282.3 592.3,282.3 594.1,282.7 595.9,280.9 597.7,280.9 599.4,280.7 601.2,280.6 603.0,281.0 604.7,281.0 606.5,281.0 608.3,281.0 610.1,281.1 611.8,282.4 613.6,282.4 615.4,282.2 617.2,282.2 618.9,282.2 620.7,281.5 622.5,281.5 624.2,281.3 626.0,281.9 627.8,281.4 629.6,281.4 631.3,279.6 633.1,277.5 634.9,276.0 636.6,274.1 638.4,273.2 640.2,272.5 642.0,272.6 643.7,272.6 645.5,272.6 647.3,272.8 649.1,272.9 650.8,272.9 652.6,273.0 654.4,273.0 656.1,273.4 657.9,273.8 659.7,275.0 661.5,275.0 663.2,275.2 665.0,275.7 666.8,275.2 668.5,275.1 670.3,275.1 672.1,275.3 673.9,275.3 675.6,275.4 677.4,277.8 679.2,277.8 680.9,277.8 682.7,277.8 684.5,277.8 686.3,277.8 688.0,277.8 689.8,277.8 691.6,278.9 693.4,279.0 695.1,279.1 696.9,278.1 698.7,278.1 700.4,278.1 702.2,277.9 704.0,278.3 705.8,278.3 707.5,278.3 709.3,280.2 711.1,279.9 712.8,280.3 714.6,279.8 716.4,279.4 718.2,279.2 719.9,276.9 721.7,276.9 723.5,277.1 725.3,277.3 727.0,277.3 728.8,277.8 730.6,277.8 732.3,277.8 734.1,278.5 735.9,278.5 737.7,278.8 739.4,278.8 741.2,279.4 743.0,279.3 744.7,281.1 746.5,283.2 748.3,284.7 750.1,286.6 751.8,287.5 753.6,288.2 755.4,288.4 757.2,288.4 758.9,288.4 760.7,288.4 762.5,288.3 764.2,288.4 766.0,288.4 767.8,288.4 769.6,288.4 771.3,288.4 773.1,288.3 774.9,288.4 776.6,288.4 778.4,288.4 780.2,289.0 782.0,289.0 783.7,289.0 785.5,289.1 787.3,289.0 789.1,289.0 790.8,289.0 792.6,289.0 794.4,288.9 796.1,288.9 797.9,288.9 799.7,288.9 801.5,288.8 803.2,288.8 805.0,288.9 806.8,288.9 808.5,288.9 810.3,289.9 812.1,289.9 813.9,289.9 815.6,290.1 817.4,290.1 819.2,290.1 820.9,290.1 822.7,290.1 824.5,290.5 826.3,290.5 828.0,291.1 829.8,291.5 831.6,291.8 833.4,294.1 835.1,294.0 836.9,293.9 838.7,293.8 840.4,293.8 842.2,293.8 844.0,293.8 845.8,293.8 847.5,293.8 849.3,293.8 851.1,293.8 852.8,293.8 854.6,293.8 856.4,293.9 858.2,293.9 859.9,293.9 861.7,294.0 863.5,293.9 865.3,293.8 867.0,293.8 868.8,293.8 870.6,293.8 872.3,293.8 874.1,293.8 875.9,293.9 877.7,293.7 879.4,293.7 881.2,293.7 883.0,293.7 884.7,293.7 886.5,293.9 888.3,293.9 890.1,293.9 891.8,293.8 893.6,293.8 895.4,293.8 897.2,293.9 898.9,293.8 900.7,293.9 902.5,293.9 904.2,293.9 906.0,293.9 907.8,294.1 909.6,294.1 911.3,294.1 913.1,294.1 914.9,294.1 916.6,294.1 918.4,294.1 920.2,294.1 922.0,294.1 923.7,294.1 925.5,294.1 927.3,294.1 929.1,294.1 930.8,294.1 932.6,294.1 934.4,294.1 936.1,294.1 937.9,294.1 939.7,294.1 941.5,294.1 943.2,294.1 945.0,294.1 946.8,294.1 948.5,294.2 950.3,294.3 952.1,294.4 953.9,294.4 955.6,294.4 957.4,294.4 959.2,294.4 960.9,294.4 962.7,294.4 964.5,294.4 966.3,294.4 968.0,294.4 969.8,294.4 971.6,294.4 973.4,294.4 975.1,294.4 976.9,294.5 978.7,294.6 980.4,294.6 982.2,294.6 984.0,294.6 985.8,294.6 987.5,294.6 989.3,294.6 991.1,294.8 992.8,294.8 994.6,294.8 996.4,294.8 998.2,294.8 999.9,294.8 1001.7,294.8 1003.5,294.8 1005.3,294.8 1007.0,294.8 1008.8,294.8 1010.6,294.8 1012.3,294.8 1014.1,294.9 1015.9,294.9 1017.7,294.9 1019.4,294.9 1021.2,294.9 1023.0,294.9 1024.7,294.9 1026.5,294.9 1028.3,294.9 1030.1,295.0 1031.8,295.0 1033.6,295.0 1035.4,295.0 1037.2,295.0 1038.9,295.0 1040.7,295.0 1042.5,295.0 1044.2,295.0 1046.0,295.0 1047.8,295.0 1049.6,295.0 1051.3,295.0 1053.1,295.0 1054.9,295.0 1056.6,295.0 1058.4,295.0 1060.2,295.0 1062.0,295.0 1063.7,295.0 1065.5,295.0 1067.3,295.0 1069.1,295.0 1070.8,295.0 1072.6,295.0 1074.4,295.0 1076.1,295.0 1077.9,295.0 1079.7,295.0 1081.5,295.0 1083.2,295.0 1085.0,295.0 1086.8,295.0 1088.5,295.0 1090.3,294.9 1092.1,294.9 1093.9,294.9 1095.6,294.9 1097.4,294.9 1099.2,294.9 1100.9,294.9 1102.7,294.9 1104.5,294.9 1106.3,294.9 1108.0,294.9 1109.8,294.9 1111.6,294.9 1113.4,294.9 1115.1,294.9 1116.9,294.9 1118.7,294.9 1120.4,294.9 1122.2,294.9 1124.0,294.9 1125.8,294.9 1127.5,294.9 1129.3,294.9 1131.1,294.9 1132.8,294.9 1134.6,294.9 1136.4,294.9 1138.2,294.9 1139.9,294.9 1141.7,294.9 1143.5,294.9 1145.3,294.9 1147.0,294.9 1148.8,294.9 1150.6,294.9 1152.3,294.9 1154.1,294.9 1155.9,294.9 1157.7,294.9 1159.4,294.9 1161.2,294.9 1163.0,294.9 1164.7,294.9 1166.5,294.9 1168.3,295.0 1170.1,295.0 1171.8,295.0 1173.6,295.0 1175.4,295.0 1177.2,295.0 1178.9,295.0 1180.7,295.0 1182.5,295.0 1184.2,295.0 1186.0,295.0 1187.8,295.0 1189.6,295.0 1191.3,295.0 1193.1,295.0 1194.9,295.0 1196.6,295.0 1198.4,295.0 1200.2,295.0 1202.0,295.0 1203.7,295.0 1205.5,295.0 1207.3,295.0 1209.1,295.0 1210.8,295.0 1212.6,295.0 1214.4,295.0 1216.1,295.0 1217.9,295.0 1219.7,295.0 1221.5,294.9 1223.2,294.9 1225.0,294.9 1226.8,294.9 1228.5,294.9 1230.3,294.9 1232.1,294.9 1233.9,294.9 1235.6,294.9 1237.4,294.9 1239.2,294.9 1240.9,294.9 1242.7,294.9 1244.5,294.9 1246.3,294.9 1248.0,294.9 1249.8,294.9 1251.6,294.9 1253.4,294.9 1255.1,294.9 1256.9,294.9 1258.7,294.9 1260.4,294.9 1262.2,294.9 1264.0,294.9 1265.8,294.9 1267.5,294.9 1269.3,294.9 1271.1,294.9 1272.8,294.9 1274.6,294.9 1276.4,294.9 1278.2,294.9 1279.9,294.9 1281.7,294.9 1283.5,294.9 1285.3,294.9 1287.0,294.9 1288.8,294.9 1290.6,294.9 1292.3,294.9 1294.1,294.9 1295.9,294.9 1297.7,294.9 1299.4,294.9 1301.2,294.9 1303.0,294.9 1304.7,294.9 1306.5,294.9 1308.3,294.9 1310.1,294.9 1311.8,294.9 1313.6,294.9 1315.4,294.9 1317.2,294.9 1318.9,294.9 1320.7,294.9 1322.5,294.9 1324.2,294.9 1326.0,294.9 1327.8,294.9 1329.6,294.9 1331.3,294.9 1333.1,294.9 1334.9,295.0 1336.6,295.0 1338.4,295.0 1340.2,295.0 1342.0,295.0 1343.7,295.0 1345.5,295.0 1347.3,295.0 1349.1,295.0 1350.8,295.0 1352.6,295.0 1354.4,295.0 1356.1,295.0 1357.9,295.0 1359.7,295.0 1361.5,295.0 1363.2,295.0 1365.0,295.0" fill="none" stroke="#9467bd" stroke-width="1.6" opacity="0.9"/>
<polyline points="105.0,288.0 106.8,288.0 108.5,288.0 110.3,288.0 112.1,287.9 113.9,287.9 115.6,285.5 117.4,285.5 119.2,284.1 120.9,285.2 122.7,284.7 124.5,284.3 126.3,284.7 128.0,284.9 129.8,285.7 131.6,285.7 133.4,285.6 135.1,285.6 136.9,285.9 138.7,286.1 140.4,286.1 142.2,286.1 144.0,286.0 145.8,286.0 147.5,286.0 149.3,285.9 151.1,285.9 152.8,285.9 154.6,285.9 156.4,285.9 158.2,286.1 159.9,286.1 161.7,286.1 163.5,286.1 165.3,286.1 167.0,286.2 168.8,286.2 170.6,286.2 172.3,286.3 174.1,286.3 175.9,286.3 177.7,286.3 179.4,286.3 181.2,286.3 183.0,286.3 184.7,286.3 186.5,286.3 188.3,286.2 190.1,286.2 191.8,287.6 193.6,287.9 195.4,287.9 197.2,288.2 198.9,288.2 200.7,288.8 202.5,288.8 204.2,288.9 206.0,288.9 207.8,289.0 209.6,288.6 211.3,287.4 213.1,287.2 214.9,287.2 216.6,287.2 218.4,287.2 220.2,287.2 222.0,287.2 223.7,287.2 225.5,287.3 227.3,286.8 229.1,288.5 230.8,288.0 232.6,289.1 234.4,289.0 236.1,289.7 237.9,290.1 239.7,289.9 241.5,289.9 243.2,289.8 245.0,289.8 246.8,289.8 248.5,289.4 250.3,289.4 252.1,289.4 253.9,289.3 255.6,289.3 257.4,289.4 259.2,289.4 260.9,289.4 262.7,289.6 264.5,289.6 266.3,289.6 268.0,289.6 269.8,289.6 271.6,289.6 273.4,289.5 275.1,289.5 276.9,289.5 278.7,289.5 280.4,289.5 282.2,289.5 284.0,289.5 285.8,289.5 287.5,289.5 289.3,289.5 291.1,289.6 292.8,289.6 294.6,289.6 296.4,289.6 298.2,289.6 299.9,289.6 301.7,289.6 303.5,289.6 305.3,289.7 307.0,289.7 308.8,289.7 310.6,289.7 312.3,289.7 314.1,289.7 315.9,289.7 317.7,289.7 319.4,289.7 321.2,289.7 323.0,290.1 324.7,291.4 326.5,291.6 328.3,291.7 330.1,291.7 331.8,291.7 333.6,291.7 335.4,291.7 337.2,291.7 338.9,291.7 340.7,292.2 342.5,292.8 344.2,293.2 346.0,293.2 347.8,293.1 349.6,292.4 351.3,291.4 353.1,291.5 354.9,291.5 356.6,291.6 358.4,291.6 360.2,291.8 362.0,292.2 363.7,292.2 365.5,292.2 367.3,292.3 369.1,292.3 370.8,292.3 372.6,292.3 374.4,292.3 376.1,292.3 377.9,292.3 379.7,292.3 381.5,292.3 383.2,291.8 385.0,291.8 386.8,291.8 388.5,291.8 390.3,291.8 392.1,291.8 393.9,291.6 395.6,291.6 397.4,291.6 399.2,291.6 400.9,291.5 402.7,291.5 404.5,291.4 406.3,290.2 408.0,290.2 409.8,290.1 411.6,290.1 413.4,290.1 415.1,290.1 416.9,290.1 418.7,289.4 420.4,289.4 422.2,289.3 424.0,289.3 425.8,289.3 427.5,289.3 429.3,289.2 431.1,288.8 432.8,288.8 434.6,288.8 436.4,288.8 438.2,288.2 439.9,288.1 441.7,288.1 443.5,288.1 445.3,288.1 447.0,288.1 448.8,288.0 450.6,287.6 452.3,287.5 454.1,287.3 455.9,287.4 457.7,287.4 459.4,287.7 461.2,287.7 463.0,288.4 464.7,289.3 466.5,288.8 468.3,288.8 470.1,288.4 471.8,288.4 473.6,288.3 475.4,288.3 477.2,288.2 478.9,288.2 480.7,287.3 482.5,286.6 484.2,286.5 486.0,285.1 487.8,284.8 489.6,284.4 491.3,284.3 493.1,284.3 494.9,284.3 496.6,284.6 498.4,283.6 500.2,283.6 502.0,281.8 503.7,281.4 505.5,281.4 507.3,281.5 509.1,281.5 510.8,281.5 512.6,280.7 514.4,280.5 516.1,280.5 517.9,280.5 519.7,281.6 521.5,281.6 523.2,281.6 525.0,281.6 526.8,281.6 528.5,281.3 530.3,281.3 532.1,281.7 533.9,281.1 535.6,281.1 537.4,280.2 539.2,278.4 540.9,277.3 542.7,277.4 544.5,277.7 546.3,277.7 548.0,277.7 549.8,277.7 551.6,278.3 553.4,278.2 555.1,278.2 556.9,278.3 558.7,277.1 560.4,277.1 562.2,277.1 564.0,277.5 565.8,277.4 567.5,277.5 569.3,277.5 571.1,277.5 572.8,277.5 574.6,277.5 576.4,277.5 578.2,277.5 579.9,278.0 581.7,277.8 583.5,277.9 585.3,277.9 587.0,277.9 588.8,277.8 590.6,276.1 592.3,276.1 594.1,276.1 595.9,276.7 597.7,276.6 599.4,276.6 601.2,276.8 603.0,277.2 604.7,277.2 606.5,277.2 608.3,277.2 610.1,277.4 611.8,278.3 613.6,278.4 615.4,279.9 617.2,280.3 618.9,280.3 620.7,279.3 622.5,279.3 624.2,277.8 626.0,278.7 627.8,276.9 629.6,276.7 631.3,276.1 633.1,276.1 634.9,275.9 636.6,275.8 638.4,275.8 640.2,275.7 642.0,276.0 643.7,276.0 645.5,276.2 647.3,276.9 649.1,277.0 650.8,277.5 652.6,279.3 654.4,280.4 656.1,280.3 657.9,279.6 659.7,277.4 661.5,275.7 663.2,275.8 665.0,275.6 666.8,274.8 668.5,274.6 670.3,274.6 672.1,275.4 673.9,275.4 675.6,275.4 677.4,275.5 679.2,275.7 680.9,275.8 682.7,275.6 684.5,275.6 686.3,275.6 688.0,275.8 689.8,275.8 691.6,273.8 693.4,273.9 695.1,272.2 696.9,272.4 698.7,271.7 700.4,271.7 702.2,270.5 704.0,272.3 705.8,272.3 707.5,273.3 709.3,273.4 711.1,272.6 712.8,274.2 714.6,274.2 716.4,274.2 718.2,274.2 719.9,274.1 721.7,274.1 723.5,274.1 725.3,274.1 727.0,274.1 728.8,274.3 730.6,274.3 732.3,274.3 734.1,275.5 735.9,275.5 737.7,277.0 739.4,276.9 741.2,278.9 743.0,279.1 744.7,279.8 746.5,279.9 748.3,280.1 750.1,280.3 751.8,280.3 753.6,280.4 755.4,280.4 757.2,280.4 758.9,280.4 760.7,280.4 762.5,280.2 764.2,280.5 766.0,280.3 767.8,280.1 769.6,279.9 771.3,280.5 773.1,282.3 774.9,283.9 776.6,283.9 778.4,284.2 780.2,284.3 782.0,284.3 783.7,284.3 785.5,284.5 787.3,284.1 789.1,284.1 790.8,284.1 792.6,283.8 794.4,283.1 796.1,283.4 797.9,283.3 799.7,283.3 801.5,283.3 803.2,283.2 805.0,285.3 806.8,285.3 808.5,287.2 810.3,287.3 812.1,287.9 813.9,287.6 815.6,288.9 817.4,287.9 819.2,287.9 820.9,287.8 822.7,285.3 824.5,285.8 826.3,284.2 828.0,283.5 829.8,280.9 831.6,278.4 833.4,275.9 835.1,274.0 836.9,272.6 838.7,272.3 840.4,271.9 842.2,271.8 844.0,270.1 845.8,269.8 847.5,267.2 849.3,264.6 851.1,263.7 852.8,261.3 854.6,261.2 856.4,261.2 858.2,261.2 859.9,261.2 861.7,261.1 863.5,261.0 865.3,261.0 867.0,261.0 868.8,260.9 870.6,260.9 872.3,260.9 874.1,260.9 875.9,261.2 877.7,261.2 879.4,261.0 881.2,261.2 883.0,261.5 884.7,261.5 886.5,262.1 888.3,262.1 890.1,262.1 891.8,261.6 893.6,262.0 895.4,262.1 897.2,262.1 898.9,262.2 900.7,262.3 902.5,262.3 904.2,262.3 906.0,262.5 907.8,263.2 909.6,263.2 911.3,263.2 913.1,263.2 914.9,263.1 916.6,262.9 918.4,262.8 920.2,262.8 922.0,262.9 923.7,262.8 925.5,263.0 927.3,263.2 929.1,263.1 930.8,264.1 932.6,264.2 934.4,264.2 936.1,266.7 937.9,267.0 939.7,268.7 941.5,269.4 943.2,272.0 945.0,274.6 946.8,277.3 948.5,279.2 950.3,280.6 952.1,281.0 953.9,281.3 955.6,281.4 957.4,283.1 959.2,283.3 960.9,285.9 962.7,288.5 964.5,289.4 966.3,291.8 968.0,291.9 969.8,291.9 971.6,291.9 973.4,292.0 975.1,292.1 976.9,292.2 978.7,292.2 980.4,292.2 982.2,292.2 984.0,292.3 985.8,292.3 987.5,292.3 989.3,292.3 991.1,292.4 992.8,292.8 994.6,292.8 996.4,292.8 998.2,292.8 999.9,292.8 1001.7,292.8 1003.5,292.8 1005.3,293.3 1007.0,293.7 1008.8,293.7 1010.6,293.7 1012.3,293.7 1014.1,294.1 1015.9,294.1 1017.7,294.1 1019.4,294.2 1021.2,294.2 1023.0,294.2 1024.7,294.2 1026.5,294.3 1028.3,294.4 1030.1,294.7 1031.8,294.7 1033.6,294.7 1035.4,294.7 1037.2,294.7 1038.9,294.7 1040.7,294.8 1042.5,294.9 1044.2,294.9 1046.0,294.9 1047.8,294.9 1049.6,294.9 1051.3,294.9 1053.1,294.9 1054.9,294.9 1056.6,294.9 1058.4,294.9 1060.2,294.9 1062.0,294.9 1063.7,294.9 1065.5,294.9 1067.3,294.9 1069.1,294.9 1070.8,294.9 1072.6,295.0 1074.4,295.0 1076.1,295.0 1077.9,295.0 1079.7,295.0 1081.5,295.0 1083.2,295.0 1085.0,295.0 1086.8,295.0 1088.5,295.0 1090.3,295.0 1092.1,295.0 1093.9,295.0 1095.6,295.0 1097.4,295.0 1099.2,295.0 1100.9,295.0 1102.7,295.0 1104.5,295.0 1106.3,295.0 1108.0,295.0 1109.8,295.0 1111.6,295.0 1113.4,295.0 1115.1,295.0 1116.9,295.0 1118.7,295.0 1120.4,295.0 1122.2,295.0 1124.0,295.0 1125.8,295.0 1127.5,295.0 1129.3,295.0 1131.1,295.0 1132.8,295.0 1134.6,295.0 1136.4,295.0 1138.2,295.0 1139.9,295.0 1141.7,295.0 1143.5,295.0 1145.3,295.0 1147.0,295.0 1148.8,295.0 1150.6,295.0 1152.3,295.0 1154.1,295.0 1155.9,295.0 1157.7,295.0 1159.4,295.0 1161.2,295.0 1163.0,295.0 1164.7,295.0 1166.5,295.0 1168.3,295.0 1170.1,295.0 1171.8,295.0 1173.6,295.0 1175.4,295.0 1177.2,295.0 1178.9,295.0 1180.7,295.0 1182.5,295.0 1184.2,295.0 1186.0,295.0 1187.8,295.0 1189.6,295.0 1191.3,295.0 1193.1,295.0 1194.9,295.0 1196.6,295.0 1198.4,295.0 1200.2,295.0 1202.0,295.0 1203.7,295.0 1205.5,295.0 1207.3,295.0 1209.1,295.0 1210.8,295.0 1212.6,295.0 1214.4,295.0 1216.1,295.0 1217.9,295.0 1219.7,295.0 1221.5,295.0 1223.2,295.0 1225.0,295.0 1226.8,295.0 1228.5,295.0 1230.3,295.0 1232.1,295.0 1233.9,295.0 1235.6,295.0 1237.4,295.0 1239.2,295.0 1240.9,295.0 1242.7,295.0 1244.5,295.0 1246.3,295.0 1248.0,295.0 1249.8,295.0 1251.6,295.0 1253.4,295.0 1255.1,295.0 1256.9,295.0 1258.7,295.0 1260.4,295.0 1262.2,295.0 1264.0,295.0 1265.8,295.0 1267.5,295.0 1269.3,295.0 1271.1,295.0 1272.8,295.0 1274.6,295.0 1276.4,295.0 1278.2,295.0 1279.9,295.0 1281.7,295.0 1283.5,295.0 1285.3,295.0 1287.0,295.0 1288.8,295.0 1290.6,295.0 1292.3,295.0 1294.1,295.0 1295.9,295.0 1297.7,295.0 1299.4,295.0 1301.2,295.0 1303.0,295.0 1304.7,295.0 1306.5,295.0 1308.3,295.0 1310.1,295.0 1311.8,295.0 1313.6,295.0 1315.4,295.0 1317.2,295.0 1318.9,295.0 1320.7,295.0 1322.5,295.0 1324.2,295.0 1326.0,295.0 1327.8,295.0 1329.6,295.0 1331.3,295.0 1333.1,295.0 1334.9,295.0 1336.6,295.0 1338.4,295.0 1340.2,295.0 1342.0,295.0 1343.7,295.0 1345.5,295.0 1347.3,295.0 1349.1,295.0 1350.8,295.0 1352.6,295.0 1354.4,295.0 1356.1,295.0 1357.9,295.0 1359.7,295.0 1361.5,295.0 1363.2,295.0 1365.0,295.0" fill="none" stroke="#d62728" stroke-width="1.6" opacity="0.9"/>
<polyline points="105.0,294.3 106.8,294.3 108.5,294.3 110.3,294.3 112.1,294.3 113.9,294.3 115.6,294.3 117.4,294.3 119.2,294.3 120.9,294.3 122.7,294.3 124.5,294.3 126.3,294.3 128.0,294.3 129.8,294.3 131.6,294.3 133.4,294.3 135.1,294.3 136.9,294.2 138.7,294.2 140.4,294.3 142.2,294.3 144.0,294.3 145.8,294.3 147.5,294.3 149.3,294.3 151.1,294.3 152.8,294.3 154.6,294.3 156.4,294.3 158.2,294.3 159.9,294.3 161.7,294.3 163.5,294.3 165.3,294.0 167.0,294.0 168.8,294.0 170.6,294.0 172.3,294.0 174.1,294.0 175.9,294.4 177.7,294.4 179.4,294.5 181.2,294.5 183.0,294.5 184.7,294.5 186.5,294.5 188.3,294.5 190.1,294.5 191.8,294.5 193.6,294.5 195.4,294.5 197.2,294.5 198.9,294.5 200.7,294.5 202.5,294.5 204.2,294.5 206.0,294.5 207.8,294.5 209.6,294.4 211.3,294.0 213.1,294.0 214.9,294.0 216.6,293.9 218.4,293.9 220.2,293.9 222.0,293.9 223.7,293.9 225.5,293.9 227.3,293.8 229.1,293.8 230.8,293.8 232.6,293.8 234.4,293.8 236.1,293.8 237.9,293.8 239.7,293.8 241.5,293.8 243.2,293.8 245.0,293.8 246.8,293.9 248.5,293.9 250.3,293.9 252.1,293.9 253.9,293.9 255.6,293.9 257.4,293.9 259.2,293.9 260.9,293.9 262.7,293.9 264.5,293.9 266.3,293.9 268.0,293.9 269.8,293.9 271.6,293.9 273.4,293.8 275.1,293.8 276.9,293.8 278.7,294.0 280.4,294.0 282.2,294.0 284.0,294.0 285.8,293.1 287.5,292.9 289.3,292.9 291.1,292.8 292.8,292.8 294.6,292.8 296.4,292.8 298.2,292.8 299.9,292.8 301.7,292.8 303.5,292.8 305.3,292.8 307.0,292.7 308.8,292.7 310.6,292.6 312.3,292.6 314.1,292.6 315.9,292.6 317.7,292.6 319.4,292.6 321.2,292.6 323.0,292.6 324.7,293.0 326.5,293.0 328.3,293.0 330.1,293.1 331.8,293.1 333.6,293.1 335.4,293.1 337.2,293.1 338.9,293.2 340.7,293.2 342.5,293.2 344.2,293.2 346.0,293.2 347.8,293.2 349.6,293.2 351.3,293.1 353.1,292.9 354.9,292.9 356.6,292.9 358.4,293.0 360.2,293.0 362.0,293.0 363.7,293.0 365.5,293.0 367.3,293.0 369.1,293.0 370.8,293.0 372.6,293.0 374.4,293.0 376.1,293.0 377.9,293.0 379.7,293.0 381.5,293.0 383.2,293.0 385.0,293.0 386.8,293.1 388.5,293.1 390.3,293.1 392.1,293.1 393.9,293.1 395.6,293.1 397.4,293.2 399.2,294.0 400.9,294.3 402.7,294.3 404.5,294.3 406.3,294.3 408.0,294.3 409.8,294.3 411.6,294.3 413.4,294.3 415.1,294.3 416.9,294.3 418.7,294.3 420.4,294.4 422.2,294.4 424.0,294.5 425.8,294.5 427.5,294.5 429.3,294.5 431.1,294.5 432.8,294.5 434.6,294.5 436.4,294.5 438.2,294.5 439.9,294.6 441.7,294.6 443.5,294.6 445.3,294.6 447.0,294.6 448.8,294.6 450.6,294.6 452.3,294.6 454.1,294.5 455.9,294.6 457.7,294.6 459.4,294.6 461.2,294.6 463.0,294.6 464.7,294.6 466.5,294.8 468.3,294.8 470.1,294.8 471.8,294.8 473.6,294.8 475.4,294.8 477.2,294.8 478.9,294.8 480.7,294.8 482.5,294.7 484.2,294.7 486.0,294.6 487.8,294.6 489.6,294.6 491.3,294.6 493.1,294.6 494.9,294.6 496.6,294.6 498.4,294.6 500.2,294.6 502.0,294.6 503.7,294.5 505.5,294.5 507.3,294.4 509.1,294.4 510.8,294.4 512.6,294.3 514.4,294.3 516.1,294.3 517.9,294.2 519.7,293.9 521.5,293.8 523.2,293.7 525.0,293.7 526.8,293.8 528.5,293.8 530.3,293.7 532.1,293.3 533.9,293.3 535.6,293.3 537.4,293.3 539.2,293.3 540.9,293.2 542.7,293.2 544.5,293.2 546.3,293.2 548.0,293.2 549.8,293.2 551.6,293.2 553.4,293.1 555.1,293.1 556.9,293.1 558.7,293.1 560.4,293.1 562.2,293.1 564.0,293.1 565.8,293.1 567.5,293.2 569.3,293.2 571.1,293.2 572.8,293.2 574.6,293.2 576.4,293.2 578.2,293.2 579.9,293.2 581.7,293.2 583.5,293.2 585.3,293.2 587.0,293.2 588.8,293.2 590.6,293.2 592.3,293.2 594.1,293.2 595.9,293.2 597.7,293.2 599.4,293.3 601.2,293.3 603.0,293.3 604.7,293.3 606.5,293.3 608.3,293.3 610.1,293.3 611.8,293.3 613.6,293.3 615.4,293.3 617.2,293.3 618.9,293.3 620.7,293.4 622.5,293.4 624.2,293.5 626.0,293.5 627.8,293.5 629.6,293.6 631.3,293.6 633.1,294.0 634.9,294.0 636.6,294.1 638.4,294.1 640.2,294.1 642.0,294.1 643.7,294.1 645.5,294.5 647.3,294.6 649.1,294.6 650.8,294.6 652.6,294.6 654.4,294.6 656.1,294.6 657.9,294.6 659.7,294.6 661.5,294.6 663.2,294.6 665.0,294.6 666.8,294.6 668.5,294.6 670.3,293.6 672.1,293.6 673.9,293.6 675.6,293.6 677.4,293.6 679.2,293.6 680.9,293.6 682.7,293.6 684.5,293.6 686.3,293.6 688.0,293.6 689.8,293.4 691.6,293.3 693.4,293.3 695.1,293.3 696.9,293.3 698.7,293.3 700.4,293.3 702.2,293.3 704.0,293.3 705.8,293.3 707.5,293.3 709.3,293.3 711.1,293.3 712.8,293.3 714.6,293.3 716.4,293.3 718.2,293.3 719.9,293.3 721.7,293.3 723.5,293.3 725.3,293.3 727.0,293.3 728.8,293.3 730.6,293.4 732.3,293.4 734.1,293.4 735.9,293.4 737.7,293.4 739.4,293.4 741.2,293.4 743.0,293.3 744.7,293.3 746.5,293.3 748.3,293.4 750.1,293.4 751.8,293.4 753.6,293.4 755.4,293.4 757.2,293.3 758.9,293.3 760.7,293.3 762.5,293.2 764.2,293.3 766.0,293.3 767.8,293.3 769.6,293.2 771.3,293.2 773.1,293.2 774.9,293.2 776.6,293.2 778.4,293.2 780.2,293.2 782.0,293.2 783.7,294.2 785.5,294.2 787.3,294.2 789.1,294.2 790.8,294.2 792.6,294.1 794.4,294.1 796.1,294.1 797.9,294.1 799.7,294.1 801.5,294.1 803.2,294.4 805.0,294.4 806.8,294.4 808.5,294.4 810.3,294.4 812.1,294.4 813.9,294.4 815.6,294.4 817.4,294.3 819.2,294.3 820.9,294.3 822.7,294.3 824.5,294.3 826.3,294.3 828.0,294.3 829.8,294.3 831.6,294.3 833.4,294.3 835.1,294.3 836.9,294.3 838.7,294.3 840.4,293.9 842.2,293.9 844.0,293.8 845.8,293.8 847.5,293.9 849.3,293.9 851.1,293.8 852.8,293.7 854.6,293.3 856.4,293.3 858.2,293.3 859.9,293.3 861.7,293.3 863.5,293.4 865.3,293.4 867.0,291.3 868.8,291.2 870.6,291.3 872.3,291.3 874.1,290.9 875.9,290.9 877.7,290.9 879.4,290.9 881.2,290.9 883.0,291.0 884.7,291.0 886.5,291.0 888.3,290.8 890.1,290.8 891.8,290.7 893.6,290.7 895.4,290.4 897.2,290.4 898.9,290.4 900.7,290.4 902.5,290.4 904.2,290.4 906.0,290.5 907.8,290.5 909.6,290.5 911.3,290.5 913.1,290.5 914.9,290.4 916.6,290.2 918.4,290.2 920.2,290.1 922.0,290.0 923.7,290.0 925.5,290.1 927.3,290.1 929.1,290.0 930.8,290.1 932.6,290.1 934.4,290.1 936.1,290.1 937.9,289.7 939.7,287.7 941.5,286.5 943.2,284.4 945.0,284.1 946.8,283.7 948.5,282.9 950.3,282.5 952.1,282.4 953.9,280.5 955.6,280.2 957.4,280.2 959.2,280.2 960.9,280.2 962.7,280.2 964.5,280.2 966.3,280.4 968.0,280.7 969.8,280.1 971.6,279.9 973.4,279.5 975.1,279.5 976.9,279.4 978.7,279.3 980.4,281.4 982.2,281.4 984.0,281.4 985.8,281.4 987.5,281.7 989.3,281.7 991.1,281.7 992.8,281.6 994.6,279.1 996.4,276.5 998.2,275.3 999.9,273.5 1001.7,273.3 1003.5,273.2 1005.3,273.2 1007.0,270.9 1008.8,268.9 1010.6,268.7 1012.3,268.7 1014.1,267.9 1015.9,267.9 1017.7,267.6 1019.4,267.5 1021.2,266.9 1023.0,266.6 1024.7,266.5 1026.5,266.5 1028.3,266.5 1030.1,264.1 1031.8,262.3 1033.6,261.2 1035.4,261.0 1037.2,260.8 1038.9,260.5 1040.7,260.5 1042.5,260.6 1044.2,259.9 1046.0,259.1 1047.8,256.8 1049.6,254.1 1051.3,251.9 1053.1,251.9 1054.9,252.5 1056.6,253.0 1058.4,250.6 1060.2,248.3 1062.0,246.4 1063.7,244.2 1065.5,241.7 1067.3,241.5 1069.1,240.7 1070.8,238.1 1072.6,235.5 1074.4,232.8 1076.1,230.6 1077.9,227.9 1079.7,227.0 1081.5,224.4 1083.2,222.7 1085.0,220.3 1086.8,218.0 1088.5,217.4 1090.3,217.3 1092.1,215.7 1093.9,213.1 1095.6,210.6 1097.4,208.0 1099.2,205.3 1100.9,204.0 1102.7,201.7 1104.5,198.9 1106.3,196.2 1108.0,196.3 1109.8,198.3 1111.6,199.4 1113.4,201.2 1115.1,201.6 1116.9,201.6 1118.7,200.9 1120.4,203.0 1122.2,204.4 1124.0,204.5 1125.8,204.3 1127.5,205.1 1129.3,204.8 1131.1,204.2 1132.8,204.2 1134.6,204.8 1136.4,205.0 1138.2,204.2 1139.9,203.0 1141.7,200.4 1143.5,200.3 1145.3,200.8 1147.0,201.7 1148.8,201.8 1150.6,200.5 1152.3,198.6 1154.1,195.9 1155.9,194.3 1157.7,192.4 1159.4,190.7 1161.2,190.9 1163.0,192.4 1164.7,192.8 1166.5,192.2 1168.3,190.1 1170.1,189.0 1171.8,189.0 1173.6,189.2 1175.4,189.1 1177.2,189.1 1178.9,189.7 1180.7,189.4 1182.5,188.5 1184.2,188.8 1186.0,189.8 1187.8,190.9 1189.6,190.4 1191.3,190.4 1193.1,188.6 1194.9,189.0 1196.6,188.7 1198.4,189.2 1200.2,189.0 1202.0,187.1 1203.7,185.9 1205.5,186.1 1207.3,187.8 1209.1,190.2 1210.8,192.2 1212.6,194.9 1214.4,196.3 1216.1,198.7 1217.9,201.2 1219.7,203.9 1221.5,206.4 1223.2,207.1 1225.0,207.1 1226.8,207.1 1228.5,207.0 1230.3,206.9 1232.1,207.7 1233.9,207.7 1235.6,208.7 1237.4,208.7 1239.2,208.8 1240.9,206.6 1242.7,204.5 1244.5,202.8 1246.3,200.1 1248.0,199.6 1249.8,196.9 1251.6,195.1 1253.4,193.6 1255.1,194.1 1256.9,194.4 1258.7,193.1 1260.4,191.4 1262.2,188.8 1264.0,187.7 1265.8,187.1 1267.5,187.3 1269.3,186.1 1271.1,185.9 1272.8,186.1 1274.6,186.4 1276.4,185.0 1278.2,184.5 1279.9,184.7 1281.7,186.6 1283.5,187.7 1285.3,188.9 1287.0,189.1 1288.8,189.6 1290.6,192.2 1292.3,194.2 1294.1,197.0 1295.9,198.9 1297.7,201.3 1299.4,202.9 1301.2,204.5 1303.0,207.2 1304.7,209.8 1306.5,212.6 1308.3,214.7 1310.1,217.2 1311.8,219.3 1313.6,221.9 1315.4,224.4 1317.2,225.7 1318.9,227.1 1320.7,227.9 1322.5,227.9 1324.2,228.4 1326.0,228.3 1327.8,228.2 1329.6,228.1 1331.3,228.1 1333.1,228.0 1334.9,227.9 1336.6,227.8 1338.4,227.7 1340.2,227.6 1342.0,227.6 1343.7,227.6 1345.5,227.6 1347.3,227.5 1349.1,227.4 1350.8,227.3 1352.6,227.3 1354.4,229.5 1356.1,231.7 1357.9,234.3 1359.7,236.9 1361.5,237.4 1363.2,240.0 1365.0,242.5" fill="none" stroke="#ff7f0e" stroke-width="1.6" opacity="0.9"/>
<polyline points="105.0,292.3 106.8,292.2 108.5,292.2 110.3,292.8 112.1,292.8 113.9,292.8 115.6,292.9 117.4,292.9 119.2,292.9 120.9,292.9 122.7,292.8 124.5,292.8 126.3,292.8 128.0,292.8 129.8,292.8 131.6,292.8 133.4,292.2 135.1,292.2 136.9,292.2 138.7,292.2 140.4,292.2 142.2,292.2 144.0,292.2 145.8,292.2 147.5,292.3 149.3,292.2 151.1,292.3 152.8,292.3 154.6,292.3 156.4,292.3 158.2,292.3 159.9,292.3 161.7,292.3 163.5,292.3 165.3,292.3 167.0,292.3 168.8,292.3 170.6,292.5 172.3,292.6 174.1,292.6 175.9,292.7 177.7,292.7 179.4,292.7 181.2,292.8 183.0,292.9 184.7,292.9 186.5,293.0 188.3,292.8 190.1,292.8 191.8,292.7 193.6,292.7 195.4,292.7 197.2,292.6 198.9,292.5 200.7,292.5 202.5,292.6 204.2,292.6 206.0,292.8 207.8,293.2 209.6,293.2 211.3,293.1 213.1,293.0 214.9,292.9 216.6,293.0 218.4,293.0 220.2,293.1 222.0,293.1 223.7,293.2 225.5,292.7 227.3,292.7 229.1,292.4 230.8,292.2 232.6,290.5 234.4,290.5 236.1,290.2 237.9,290.0 239.7,289.9 241.5,289.1 243.2,286.6 245.0,286.3 246.8,285.8 248.5,285.1 250.3,282.4 252.1,280.7 253.9,280.7 255.6,280.7 257.4,280.7 259.2,280.7 260.9,280.7 262.7,280.7 264.5,280.7 266.3,280.7 268.0,280.6 269.8,280.7 271.6,280.7 273.4,280.5 275.1,280.5 276.9,280.5 278.7,280.5 280.4,280.5 282.2,280.5 284.0,280.5 285.8,279.8 287.5,278.0 289.3,278.0 291.1,277.9 292.8,277.9 294.6,277.9 296.4,277.9 298.2,277.9 299.9,277.9 301.7,278.1 303.5,278.1 305.3,278.1 307.0,278.1 308.8,278.1 310.6,278.3 312.3,278.3 314.1,278.3 315.9,278.3 317.7,278.3 319.4,278.3 321.2,278.3 323.0,278.3 324.7,277.1 326.5,276.9 328.3,277.1 330.1,277.1 331.8,277.1 333.6,277.1 335.4,277.1 337.2,277.1 338.9,277.5 340.7,277.6 342.5,277.7 344.2,277.9 346.0,279.7 347.8,279.7 349.6,279.9 351.3,279.8 353.1,279.8 354.9,280.6 356.6,283.1 358.4,283.4 360.2,284.5 362.0,285.2 363.7,287.9 365.5,289.6 367.3,289.6 369.1,289.6 370.8,289.6 372.6,289.6 374.4,289.6 376.1,289.7 377.9,289.7 379.7,289.7 381.5,289.7 383.2,289.2 385.0,289.2 386.8,289.1 388.5,289.1 390.3,289.2 392.1,289.2 393.9,289.2 395.6,289.1 397.4,289.1 399.2,289.9 400.9,291.6 402.7,289.0 404.5,286.7 406.3,286.7 408.0,286.7 409.8,286.7 411.6,286.7 413.4,285.9 415.1,285.8 416.9,285.8 418.7,285.8 420.4,285.8 422.2,285.8 424.0,285.8 425.8,285.8 427.5,285.8 429.3,285.8 431.1,285.8 432.8,285.8 434.6,285.8 436.4,285.8 438.2,287.2 439.9,287.5 441.7,287.6 443.5,287.6 445.3,287.6 447.0,287.6 448.8,287.6 450.6,287.6 452.3,287.6 454.1,287.6 455.9,287.7 457.7,287.7 459.4,287.5 461.2,287.5 463.0,287.6 464.7,286.2 466.5,286.3 468.3,286.3 470.1,286.3 471.8,286.3 473.6,286.3 475.4,286.3 477.2,286.3 478.9,286.3 480.7,285.7 482.5,285.7 484.2,285.1 486.0,284.5 487.8,284.0 489.6,283.9 491.3,283.8 493.1,283.8 494.9,283.8 496.6,283.5 498.4,283.4 500.2,281.5 502.0,281.1 503.7,280.7 505.5,280.7 507.3,278.6 509.1,278.6 510.8,278.6 512.6,277.8 514.4,275.6 516.1,278.2 517.9,278.1 519.7,277.5 521.5,276.5 523.2,276.5 525.0,276.5 526.8,277.2 528.5,277.1 530.3,277.0 532.1,275.5 533.9,275.5 535.6,273.1 537.4,272.4 539.2,272.4 540.9,272.4 542.7,272.3 544.5,272.1 546.3,272.1 548.0,272.0 549.8,272.0 551.6,271.8 553.4,271.8 555.1,271.8 556.9,271.8 558.7,270.6 560.4,270.6 562.2,270.6 564.0,270.6 565.8,270.6 567.5,270.4 569.3,270.4 571.1,270.4 572.8,270.6 574.6,270.6 576.4,270.6 578.2,272.2 579.9,272.2 581.7,272.1 583.5,272.1 585.3,272.1 587.0,272.2 588.8,272.2 590.6,272.1 592.3,272.1 594.1,272.6 595.9,272.6 597.7,273.2 599.4,273.5 601.2,274.0 603.0,274.1 604.7,274.2 606.5,274.2 608.3,274.3 610.1,274.9 611.8,274.8 613.6,276.9 615.4,277.4 617.2,277.6 618.9,277.6 620.7,279.7 622.5,279.7 624.2,279.7 626.0,280.5 627.8,282.7 629.6,282.7 631.3,285.2 633.1,285.9 634.9,286.8 636.6,286.6 638.4,286.6 640.2,286.4 642.0,286.5 643.7,286.6 645.5,288.1 647.3,288.1 649.1,290.5 650.8,291.2 652.6,291.2 654.4,291.2 656.1,291.2 657.9,291.5 659.7,291.5 661.5,291.5 663.2,291.5 665.0,291.8 666.8,291.7 668.5,291.7 670.3,291.7 672.1,292.9 673.9,292.9 675.6,292.9 677.4,292.9 679.2,293.0 680.9,293.1 682.7,293.1 684.5,293.1 686.3,293.1 688.0,293.1 689.8,293.0 691.6,292.9 693.4,292.9 695.1,293.0 696.9,293.0 698.7,293.0 700.4,293.0 702.2,293.0 704.0,293.0 705.8,293.0 707.5,293.1 709.3,293.1 711.1,293.1 712.8,293.4 714.6,293.5 716.4,293.5 718.2,293.5 719.9,293.5 721.7,293.5 723.5,293.4 725.3,293.7 727.0,293.7 728.8,293.7 730.6,293.8 732.3,293.8 734.1,293.8 735.9,293.9 737.7,293.9 739.4,293.9 741.2,293.9 743.0,294.0 744.7,294.0 746.5,294.0 748.3,294.0 750.1,294.2 751.8,294.2 753.6,294.5 755.4,294.6 757.2,294.6 758.9,294.6 760.7,294.6 762.5,294.6 764.2,294.6 766.0,294.6 767.8,294.6 769.6,294.6 771.3,294.6 773.1,294.7 774.9,294.7 776.6,294.7 778.4,294.7 780.2,294.7 782.0,294.7 783.7,294.7 785.5,294.7 787.3,294.7 789.1,294.7 790.8,294.7 792.6,294.7 794.4,294.7 796.1,294.7 797.9,294.7 799.7,294.7 801.5,294.7 803.2,294.9 805.0,295.0 806.8,295.0 808.5,295.0 810.3,295.0 812.1,295.0 813.9,295.0 815.6,295.0 817.4,295.0 819.2,295.0 820.9,295.0 822.7,295.0 824.5,295.0 826.3,295.0 828.0,295.0 829.8,295.0 831.6,295.0 833.4,295.0 835.1,295.0 836.9,295.0 838.7,294.8 840.4,294.7 842.2,294.7 844.0,294.7 845.8,294.7 847.5,294.7 849.3,294.7 851.1,294.7 852.8,294.7 854.6,294.5 856.4,294.5 858.2,294.5 859.9,294.5 861.7,294.5 863.5,294.5 865.3,294.4 867.0,294.4 868.8,294.4 870.6,294.4 872.3,294.4 874.1,294.4 875.9,294.4 877.7,294.3 879.4,294.3 881.2,294.3 883.0,294.3 884.7,294.3 886.5,294.3 888.3,294.3 890.1,294.3 891.8,294.3 893.6,294.3 895.4,294.3 897.2,294.3 898.9,294.3 900.7,294.3 902.5,294.3 904.2,294.3 906.0,294.3 907.8,294.3 909.6,294.3 911.3,294.3 913.1,294.3 914.9,294.3 916.6,294.3 918.4,294.2 920.2,294.2 922.0,294.2 923.7,294.2 925.5,294.2 927.3,294.2 929.1,294.2 930.8,294.3 932.6,294.3 934.4,294.3 936.1,294.3 937.9,294.3 939.7,294.3 941.5,294.3 943.2,294.3 945.0,294.3 946.8,294.3 948.5,294.3 950.3,294.3 952.1,294.4 953.9,294.5 955.6,294.5 957.4,294.5 959.2,294.5 960.9,294.5 962.7,294.5 964.5,294.5 966.3,294.5 968.0,294.7 969.8,294.7 971.6,294.7 973.4,294.7 975.1,294.7 976.9,294.7 978.7,294.8 980.4,294.8 982.2,294.9 984.0,294.9 985.8,294.9 987.5,294.9 989.3,294.9 991.1,294.9 992.8,294.9 994.6,294.9 996.4,294.9 998.2,294.9 999.9,294.9 1001.7,294.9 1003.5,294.9 1005.3,294.9 1007.0,294.9 1008.8,294.9 1010.6,294.9 1012.3,294.9 1014.1,294.9 1015.9,294.9 1017.7,294.9 1019.4,294.9 1021.2,294.9 1023.0,294.9 1024.7,294.9 1026.5,294.9 1028.3,294.9 1030.1,295.0 1031.8,295.0 1033.6,295.0 1035.4,295.0 1037.2,295.0 1038.9,295.0 1040.7,295.0 1042.5,295.0 1044.2,295.0 1046.0,295.0 1047.8,295.0 1049.6,295.0 1051.3,295.0 1053.1,295.0 1054.9,295.0 1056.6,295.0 1058.4,295.0 1060.2,295.0 1062.0,295.0 1063.7,295.0 1065.5,295.0 1067.3,295.0 1069.1,295.0 1070.8,295.0 1072.6,295.0 1074.4,295.0 1076.1,295.0 1077.9,295.0 1079.7,294.9 1081.5,294.9 1083.2,294.8 1085.0,294.8 1086.8,294.7 1088.5,292.7 1090.3,290.4 1092.1,290.4 1093.9,290.4 1095.6,290.4 1097.4,290.4 1099.2,290.4 1100.9,290.4 1102.7,290.4 1104.5,290.4 1106.3,290.4 1108.0,290.4 1109.8,290.3 1111.6,290.3 1113.4,290.3 1115.1,290.3 1116.9,290.3 1118.7,290.3 1120.4,290.3 1122.2,290.2 1124.0,290.2 1125.8,290.2 1127.5,290.2 1129.3,290.2 1131.1,290.2 1132.8,290.2 1134.6,290.2 1136.4,290.2 1138.2,290.2 1139.9,290.1 1141.7,290.1 1143.5,290.1 1145.3,290.1 1147.0,290.1 1148.8,290.0 1150.6,289.8 1152.3,289.8 1154.1,289.8 1155.9,289.8 1157.7,289.8 1159.4,289.8 1161.2,289.8 1163.0,289.8 1164.7,289.8 1166.5,289.8 1168.3,289.8 1170.1,289.8 1171.8,289.8 1173.6,289.8 1175.4,289.8 1177.2,289.8 1178.9,289.8 1180.7,289.8 1182.5,289.8 1184.2,289.8 1186.0,289.7 1187.8,289.2 1189.6,289.1 1191.3,289.1 1193.1,289.2 1194.9,289.2 1196.6,289.3 1198.4,288.8 1200.2,288.9 1202.0,290.9 1203.7,293.2 1205.5,293.2 1207.3,293.2 1209.1,293.2 1210.8,293.2 1212.6,293.2 1214.4,293.2 1216.1,293.2 1217.9,293.1 1219.7,293.1 1221.5,293.1 1223.2,293.0 1225.0,293.0 1226.8,292.9 1228.5,292.9 1230.3,292.9 1232.1,293.0 1233.9,293.0 1235.6,292.8 1237.4,292.6 1239.2,292.5 1240.9,292.5 1242.7,292.6 1244.5,292.6 1246.3,292.6 1248.0,292.6 1249.8,292.6 1251.6,292.6 1253.4,292.6 1255.1,292.6 1256.9,292.6 1258.7,292.6 1260.4,292.6 1262.2,292.7 1264.0,292.9 1265.8,292.9 1267.5,292.9 1269.3,292.9 1271.1,292.9 1272.8,292.9 1274.6,292.9 1276.4,292.9 1278.2,292.9 1279.9,292.9 1281.7,291.1 1283.5,290.8 1285.3,290.8 1287.0,290.5 1288.8,290.0 1290.6,290.0 1292.3,290.0 1294.1,290.0 1295.9,290.0 1297.7,290.1 1299.4,290.1 1301.2,290.7 1303.0,290.7 1304.7,290.2 1306.5,290.2 1308.3,290.2 1310.1,290.0 1311.8,290.2 1313.6,289.9 1315.4,289.6 1317.2,289.4 1318.9,289.2 1320.7,288.9 1322.5,288.7 1324.2,288.4 1326.0,288.2 1327.8,287.9 1329.6,287.6 1331.3,287.5 1333.1,287.3 1334.9,287.0 1336.6,286.8 1338.4,286.6 1340.2,286.4 1342.0,286.1 1343.7,285.9 1345.5,285.6 1347.3,285.4 1349.1,285.3 1350.8,285.3 1352.6,285.1 1354.4,284.9 1356.1,284.6 1357.9,284.4 1359.7,284.1 1361.5,283.8 1363.2,283.6 1365.0,283.3" fill="none" stroke="#2ca02c" stroke-width="1.6" opacity="0.9"/>
<polyline points="105.0,133.3 106.8,133.4 108.5,133.4 110.3,132.8 112.1,132.8 113.9,132.9 115.6,135.2 117.4,135.2 119.2,136.5 120.9,135.3 122.7,135.7 124.5,136.1 126.3,135.8 128.0,135.6 129.8,134.8 131.6,134.8 133.4,135.5 135.1,135.6 136.9,135.2 138.7,135.0 140.4,134.8 142.2,134.8 144.0,134.9 145.8,134.8 147.5,134.8 149.3,135.0 151.1,134.9 152.8,134.9 154.6,134.9 156.4,134.9 158.2,133.7 159.9,133.8 161.7,133.8 163.5,133.8 165.3,134.0 167.0,134.0 168.8,134.1 170.6,133.7 172.3,133.5 174.1,133.1 175.9,132.6 177.7,132.6 179.4,132.5 181.2,132.4 183.0,132.3 184.7,132.3 186.5,132.2 188.3,132.6 190.1,132.6 191.8,131.2 193.6,130.9 195.4,131.0 197.2,130.8 198.9,130.8 200.7,130.2 202.5,130.1 204.2,130.0 206.0,129.8 207.8,129.1 209.6,129.6 211.3,131.2 213.1,131.6 214.9,131.6 216.6,131.6 218.4,131.6 220.2,131.5 222.0,131.5 223.7,131.5 225.5,132.1 227.3,132.8 229.1,131.4 230.8,132.2 232.6,132.8 234.4,132.9 236.1,132.5 237.9,132.2 239.7,132.5 241.5,133.3 243.2,135.8 245.0,138.1 246.8,139.9 248.5,141.0 250.3,143.6 252.1,145.4 253.9,145.6 255.6,145.6 257.4,145.5 259.2,145.6 260.9,145.6 262.7,145.4 264.5,145.5 266.3,145.5 268.0,145.6 269.8,145.6 271.6,145.7 273.4,146.3 275.1,146.3 276.9,146.9 278.7,147.0 280.4,147.0 282.2,147.0 284.0,147.1 285.8,148.6 287.5,150.7 289.3,150.8 291.1,150.9 292.8,151.0 294.6,151.0 296.4,151.0 298.2,151.0 299.9,151.1 301.7,150.7 303.5,150.7 305.3,150.6 307.0,150.7 308.8,150.7 310.6,150.6 312.3,150.5 314.1,150.6 315.9,150.6 317.7,150.6 319.4,150.6 321.2,150.6 323.0,150.1 324.7,149.7 326.5,149.7 328.3,149.4 330.1,149.3 331.8,149.2 333.6,149.2 335.4,149.2 337.2,149.2 338.9,148.5 340.7,147.8 342.5,147.1 344.2,146.4 346.0,144.7 347.8,144.8 349.6,145.3 351.3,146.4 353.1,146.6 354.9,145.8 356.6,143.2 358.4,140.9 360.2,138.2 362.0,137.1 363.7,134.4 365.5,132.6 367.3,132.4 369.1,132.6 370.8,132.6 372.6,132.6 374.4,132.6 376.1,132.5 377.9,132.5 379.7,132.5 381.5,132.4 383.2,133.4 385.0,133.3 386.8,132.8 388.5,132.8 390.3,132.1 392.1,131.7 393.9,132.1 395.6,132.1 397.4,132.0 399.2,132.1 400.9,130.7 402.7,133.3 404.5,135.8 406.3,137.0 408.0,137.0 409.8,137.1 411.6,137.1 413.4,137.9 415.1,138.0 416.9,138.0 418.7,138.9 420.4,138.7 422.2,138.9 424.0,138.8 425.8,138.9 427.5,138.9 429.3,140.6 431.1,140.9 432.8,141.1 434.6,141.1 436.4,141.2 438.2,140.9 439.9,141.3 441.7,141.2 443.5,141.2 445.3,141.9 447.0,141.9 448.8,141.9 450.6,142.5 452.3,142.5 454.1,142.9 455.9,142.6 457.7,143.2 459.4,143.0 461.2,143.0 463.0,142.3 464.7,143.2 466.5,144.2 468.3,144.2 470.1,144.6 471.8,144.7 473.6,145.0 475.4,145.0 477.2,145.2 478.9,145.2 480.7,147.1 482.5,147.9 484.2,148.5 486.0,150.9 487.8,151.7 489.6,152.7 491.3,152.8 493.1,152.8 494.9,153.0 496.6,153.1 498.4,155.7 500.2,157.7 502.0,160.2 503.7,161.0 505.5,161.1 507.3,163.0 509.1,163.0 510.8,163.0 512.6,163.8 514.4,165.7 516.1,163.1 517.9,163.1 519.7,162.9 521.5,164.1 523.2,164.1 525.0,164.1 526.8,163.3 528.5,164.0 530.3,164.2 532.1,165.4 533.9,166.4 535.6,168.8 537.4,170.5 539.2,172.4 540.9,173.5 542.7,172.2 544.5,172.6 546.3,173.7 548.0,173.9 549.8,174.1 551.6,173.8 553.4,173.1 555.1,173.1 556.9,173.1 558.7,175.1 560.4,175.0 562.2,175.1 564.0,177.0 565.8,177.2 567.5,177.2 569.3,177.2 571.1,176.5 572.8,176.4 574.6,176.5 576.4,176.4 578.2,175.4 579.9,174.2 581.7,174.6 583.5,174.4 585.3,174.3 587.0,174.1 588.8,174.2 590.6,176.3 592.3,176.2 594.1,175.5 595.9,176.6 597.7,176.1 599.4,176.0 601.2,175.3 603.0,174.4 604.7,174.3 606.5,174.3 608.3,174.2 610.1,173.3 611.8,171.2 613.6,169.0 615.4,167.2 617.2,166.6 618.9,166.5 620.7,166.0 622.5,166.0 624.2,167.8 626.0,165.4 627.8,165.5 629.6,165.6 631.3,165.5 633.1,166.5 634.9,167.3 636.6,169.4 638.4,170.3 640.2,171.2 642.0,170.8 643.7,170.7 645.5,168.6 647.3,167.6 649.1,165.1 650.8,163.9 652.6,162.0 654.4,160.9 656.1,160.5 657.9,160.5 659.7,161.6 661.5,163.1 663.2,162.9 665.0,162.3 666.8,163.6 668.5,163.9 670.3,165.0 672.1,162.7 673.9,162.7 675.6,162.6 677.4,160.1 679.2,159.9 680.9,159.6 682.7,159.9 684.5,159.9 686.3,159.9 688.0,159.7 689.8,160.1 691.6,161.1 693.4,160.8 695.1,162.4 696.9,163.2 698.7,164.0 700.4,164.0 702.2,165.3 704.0,163.1 705.8,163.1 707.5,162.0 709.3,159.9 711.1,161.1 712.8,158.8 714.6,159.2 716.4,159.6 718.2,159.9 719.9,162.3 721.7,162.3 723.5,162.1 725.3,161.5 727.0,161.5 728.8,160.8 730.6,160.7 732.3,160.7 734.1,158.8 735.9,158.7 737.7,156.9 739.4,157.0 741.2,154.4 743.0,154.3 744.7,151.8 746.5,149.6 748.3,147.7 750.1,145.6 751.8,144.7 753.6,143.6 755.4,143.3 757.2,143.2 758.9,143.2 760.7,143.3 762.5,143.7 764.2,143.2 766.0,143.3 767.8,143.6 769.6,143.9 771.3,143.2 773.1,141.5 774.9,139.8 776.6,139.8 778.4,139.6 780.2,138.9 782.0,138.7 783.7,137.8 785.5,137.5 787.3,138.0 789.1,138.0 790.8,138.0 792.6,138.4 794.4,139.2 796.1,138.9 797.9,138.9 799.7,139.1 801.5,139.0 803.2,138.7 805.0,136.6 806.8,136.6 808.5,134.6 810.3,133.5 812.1,132.9 813.9,133.2 815.6,131.7 817.4,132.7 819.2,132.8 820.9,132.8 822.7,135.3 824.5,134.4 826.3,136.1 828.0,136.2 829.8,138.4 831.6,140.6 833.4,140.7 835.1,142.7 836.9,144.3 838.7,144.9 840.4,145.6 842.2,145.7 844.0,147.5 845.8,147.8 847.5,150.4 849.3,153.0 851.1,153.9 852.8,156.5 854.6,157.1 856.4,157.0 858.2,157.0 859.9,157.0 861.7,157.1 863.5,157.3 865.3,157.4 867.0,159.5 868.8,159.7 870.6,159.6 872.3,159.6 874.1,160.0 875.9,159.6 877.7,159.9 879.4,160.1 881.2,159.8 883.0,159.5 884.7,159.4 886.5,158.8 888.3,159.0 890.1,159.0 891.8,159.6 893.6,159.2 895.4,159.3 897.2,159.3 898.9,159.2 900.7,159.1 902.5,159.1 904.2,159.1 906.0,158.8 907.8,157.9 909.6,157.9 911.3,158.0 913.1,157.9 914.9,158.0 916.6,158.5 918.4,158.7 920.2,158.8 922.0,158.8 923.7,158.8 925.5,158.6 927.3,158.5 929.1,158.5 930.8,157.5 932.6,157.4 934.4,157.4 936.1,154.9 937.9,154.9 939.7,155.3 941.5,155.7 943.2,155.3 945.0,153.0 946.8,150.7 948.5,149.4 950.3,148.3 952.1,147.9 953.9,149.4 955.6,149.6 957.4,147.8 959.2,147.7 960.9,145.0 962.7,142.4 964.5,141.5 966.3,138.9 968.0,138.2 969.8,138.9 971.6,139.1 973.4,139.4 975.1,139.3 976.9,139.2 978.7,139.1 980.4,137.0 982.2,136.9 984.0,136.9 985.8,136.9 987.5,136.5 989.3,136.6 991.1,136.2 992.8,135.8 994.6,138.3 996.4,141.0 998.2,142.2 999.9,144.0 1001.7,144.2 1003.5,144.2 1005.3,143.7 1007.0,145.6 1008.8,147.7 1010.6,147.8 1012.3,147.8 1014.1,148.2 1015.9,148.2 1017.7,148.5 1019.4,148.6 1021.2,149.2 1023.0,149.4 1024.7,149.4 1026.5,149.4 1028.3,149.2 1030.1,151.3 1031.8,153.0 1033.6,154.1 1035.4,154.3 1037.2,154.6 1038.9,154.8 1040.7,154.7 1042.5,154.6 1044.2,155.3 1046.0,156.1 1047.8,158.3 1049.6,161.1 1051.3,163.2 1053.1,163.2 1054.9,162.7 1056.6,162.2 1058.4,164.6 1060.2,166.9 1062.0,168.8 1063.7,171.0 1065.5,173.5 1067.3,173.7 1069.1,174.5 1070.8,177.1 1072.6,179.6 1074.4,182.3 1076.1,184.5 1077.9,187.2 1079.7,188.2 1081.5,190.7 1083.2,192.5 1085.0,195.0 1086.8,197.3 1088.5,199.9 1090.3,202.4 1092.1,204.0 1093.9,206.6 1095.6,209.1 1097.4,211.7 1099.2,214.4 1100.9,215.7 1102.7,218.1 1104.5,220.8 1106.3,223.5 1108.0,223.4 1109.8,221.4 1111.6,220.3 1113.4,218.5 1115.1,218.1 1116.9,218.2 1118.7,218.9 1120.4,216.8 1122.2,215.5 1124.0,215.4 1125.8,215.6 1127.5,214.8 1129.3,215.0 1131.1,215.7 1132.8,215.7 1134.6,215.2 1136.4,214.9 1138.2,215.7 1139.9,216.9 1141.7,219.6 1143.5,219.6 1145.3,219.2 1147.0,218.2 1148.8,218.2 1150.6,219.8 1152.3,221.7 1154.1,224.4 1155.9,226.0 1157.7,227.8 1159.4,229.6 1161.2,229.3 1163.0,227.9 1164.7,227.5 1166.5,228.1 1168.3,230.2 1170.1,231.2 1171.8,231.2 1173.6,231.1 1175.4,231.2 1177.2,231.2 1178.9,230.6 1180.7,230.8 1182.5,231.8 1184.2,231.5 1186.0,230.5 1187.8,230.0 1189.6,230.5 1191.3,230.5 1193.1,232.2 1194.9,231.8 1196.6,232.0 1198.4,232.0 1200.2,232.1 1202.0,232.0 1203.7,230.9 1205.5,230.7 1207.3,229.0 1209.1,226.6 1210.8,224.6 1212.6,221.9 1214.4,220.5 1216.1,218.1 1217.9,215.8 1219.7,213.0 1221.5,210.7 1223.2,210.0 1225.0,210.1 1226.8,210.1 1228.5,210.1 1230.3,210.2 1232.1,209.5 1233.9,209.4 1235.6,208.6 1237.4,208.8 1239.2,208.8 1240.9,211.0 1242.7,213.1 1244.5,214.7 1246.3,217.4 1248.0,218.0 1249.8,220.6 1251.6,222.4 1253.4,223.9 1255.1,223.4 1256.9,223.1 1258.7,224.4 1260.4,226.1 1262.2,228.6 1264.0,229.5 1265.8,230.0 1267.5,229.9 1269.3,231.0 1271.1,231.2 1272.8,231.0 1274.6,230.8 1276.4,232.2 1278.2,232.7 1279.9,232.5 1281.7,232.4 1283.5,231.6 1285.3,230.4 1287.0,230.5 1288.8,230.5 1290.6,227.9 1292.3,225.8 1294.1,223.1 1295.9,221.2 1297.7,218.8 1299.4,217.2 1301.2,215.0 1303.0,212.2 1304.7,210.1 1306.5,207.4 1308.3,205.3 1310.1,203.0 1311.8,200.7 1313.6,198.3 1315.4,196.1 1317.2,195.0 1318.9,193.9 1320.7,193.3 1322.5,193.6 1324.2,193.3 1326.0,193.7 1327.8,194.1 1329.6,194.4 1331.3,194.4 1333.1,194.8 1334.9,195.1 1336.6,195.4 1338.4,195.7 1340.2,196.1 1342.0,196.4 1343.7,196.6 1345.5,196.9 1347.3,197.2 1349.1,197.3 1350.8,197.4 1352.6,197.6 1354.4,195.7 1356.1,193.7 1357.9,191.4 1359.7,189.0 1361.5,188.8 1363.2,186.4 1365.0,184.2" fill="none" stroke="#1f77b4" stroke-width="1.6" opacity="0.9"/>
<text x="25" y="207.5" text-anchor="middle" font-size="12" transform="rotate(-90 25 207.5)">mean-64 role probability</text>
<rect x="784.6" y="350.0" width="550.4" height="175.0" fill="#ffe066" opacity="0.82"/>
<line x1="105" y1="525.0" x2="1365" y2="525.0" stroke="#dddddd"/>
<text x="97" y="529.0" text-anchor="end" font-size="11">-0.5</text>
<line x1="105" y1="457.7" x2="1365" y2="457.7" stroke="#dddddd"/>
<text x="97" y="461.7" text-anchor="end" font-size="11">0.0</text>
<line x1="105" y1="390.4" x2="1365" y2="390.4" stroke="#dddddd"/>
<text x="97" y="394.4" text-anchor="end" font-size="11">0.5</text>
<rect x="105" y="350" width="1260" height="175" fill="none" stroke="#555"/>
<text x="105.0" y="542.0" text-anchor="middle" font-size="10">24,113</text>
<text x="420.0" y="542.0" text-anchor="middle" font-size="10">24,291</text>
<text x="735.0" y="542.0" text-anchor="middle" font-size="10">24,469</text>
<text x="1050.0" y="542.0" text-anchor="middle" font-size="10">24,647</text>
<text x="1365.0" y="542.0" text-anchor="middle" font-size="10">24,825</text>
<polyline points="105.0,459.0 106.8,459.0 108.5,459.0 110.3,459.0 112.1,459.1 113.9,459.1 115.6,459.1 117.4,459.1 119.2,459.1 120.9,459.3 122.7,459.3 124.5,459.3 126.3,459.3 128.0,459.3 129.8,459.3 131.6,459.3 133.4,459.3 135.1,459.3 136.9,459.4 138.7,459.4 140.4,459.5 142.2,459.5 144.0,459.5 145.8,459.5 147.5,459.6 149.3,459.7 151.1,459.7 152.8,459.7 154.6,459.7 156.4,459.7 158.2,460.5 159.9,460.4 161.7,460.4 163.5,460.4 165.3,460.4 167.0,460.6 168.8,460.5 170.6,460.6 172.3,460.6 174.1,460.9 175.9,460.9 177.7,460.9 179.4,461.0 181.2,461.1 183.0,461.1 184.7,461.1 186.5,461.1 188.3,461.0 190.1,461.0 191.8,461.0 193.6,461.1 195.4,461.1 197.2,461.1 198.9,461.2 200.7,461.2 202.5,461.2 204.2,461.3 206.0,461.3 207.8,461.4 209.6,461.4 211.3,461.4 213.1,461.4 214.9,461.6 216.6,461.6 218.4,461.6 220.2,461.6 222.0,461.6 223.7,461.7 225.5,461.4 227.3,461.4 229.1,461.4 230.8,461.4 232.6,461.3 234.4,461.5 236.1,461.7 237.9,461.9 239.7,462.1 241.5,462.2 243.2,462.2 245.0,460.8 246.8,459.7 248.5,459.7 250.3,459.7 252.1,459.7 253.9,459.6 255.6,459.6 257.4,459.6 259.2,459.5 260.9,459.5 262.7,459.5 264.5,459.5 266.3,459.5 268.0,459.4 269.8,459.5 271.6,459.4 273.4,459.1 275.1,459.1 276.9,458.6 278.7,458.4 280.4,458.3 282.2,458.3 284.0,458.2 285.8,458.2 287.5,458.1 289.3,458.1 291.1,458.1 292.8,458.0 294.6,458.0 296.4,458.0 298.2,458.0 299.9,458.0 301.7,458.1 303.5,458.0 305.3,458.1 307.0,458.1 308.8,458.1 310.6,458.1 312.3,458.1 314.1,458.1 315.9,458.1 317.7,458.1 319.4,458.2 321.2,458.2 323.0,458.4 324.7,458.5 326.5,458.4 328.3,458.4 330.1,458.4 331.8,458.4 333.6,458.4 335.4,458.4 337.2,458.4 338.9,458.7 340.7,458.7 342.5,458.7 344.2,458.7 346.0,458.8 347.8,458.7 349.6,458.7 351.3,458.7 353.1,458.7 354.9,458.7 356.6,458.7 358.4,460.1 360.2,461.2 362.0,461.2 363.7,461.2 365.5,461.3 367.3,461.4 369.1,461.3 370.8,461.2 372.6,461.3 374.4,461.2 376.1,461.2 377.9,461.2 379.7,461.2 381.5,461.3 383.2,461.3 385.0,461.3 386.8,461.7 388.5,461.7 390.3,462.2 392.1,462.5 393.9,462.3 395.6,462.4 397.4,462.4 399.2,461.2 400.9,460.8 402.7,460.7 404.5,460.7 406.3,460.7 408.0,460.7 409.8,460.7 411.6,460.7 413.4,460.7 415.1,460.6 416.9,460.6 418.7,460.5 420.4,460.5 422.2,460.5 424.0,460.5 425.8,460.4 427.5,460.4 429.3,459.2 431.1,459.2 432.8,459.0 434.6,459.0 436.4,459.0 438.2,458.6 439.9,458.1 441.7,458.1 443.5,458.1 445.3,457.6 447.0,457.6 448.8,457.6 450.6,457.5 452.3,457.5 454.1,457.5 455.9,457.5 457.7,457.0 459.4,457.0 461.2,457.1 463.0,457.0 464.7,456.7 466.5,456.1 468.3,456.1 470.1,456.0 471.8,456.0 473.6,455.8 475.4,455.8 477.2,455.8 478.9,455.8 480.7,455.5 482.5,455.5 484.2,455.5 486.0,455.3 487.8,455.3 489.6,455.0 491.3,454.9 493.1,454.9 494.9,454.9 496.6,454.7 498.4,453.5 500.2,453.5 502.0,453.2 503.7,453.2 505.5,453.2 507.3,453.3 509.1,453.3 510.8,453.3 512.6,454.0 514.4,454.4 516.1,454.5 517.9,454.4 519.7,454.5 521.5,454.5 523.2,454.5 525.0,454.5 526.8,454.5 528.5,454.3 530.3,454.3 532.1,454.5 533.9,454.2 535.6,454.2 537.4,454.1 539.2,454.1 540.9,454.1 542.7,455.0 544.5,454.7 546.3,453.9 548.0,453.8 549.8,453.7 551.6,453.7 553.4,454.2 555.1,454.1 556.9,454.1 558.7,454.4 560.4,454.4 562.2,454.4 564.0,452.6 565.8,452.5 567.5,452.5 569.3,452.5 571.1,453.0 572.8,453.0 574.6,453.0 576.4,453.0 578.2,452.5 579.9,453.0 581.7,453.0 583.5,453.0 585.3,453.0 587.0,453.2 588.8,453.2 590.6,452.9 592.3,453.0 594.1,453.3 595.9,451.9 597.7,451.9 599.4,451.7 601.2,451.6 603.0,451.9 604.7,451.9 606.5,451.9 608.3,451.9 610.1,452.0 611.8,453.0 613.6,453.0 615.4,452.8 617.2,452.8 618.9,452.9 620.7,452.3 622.5,452.3 624.2,452.1 626.0,452.6 627.8,452.2 629.6,452.2 631.3,450.8 633.1,449.2 634.9,448.0 636.6,446.6 638.4,445.9 640.2,445.4 642.0,445.4 643.7,445.4 645.5,445.4 647.3,445.6 649.1,445.6 650.8,445.7 652.6,445.7 654.4,445.7 656.1,446.0 657.9,446.4 659.7,447.2 661.5,447.3 663.2,447.4 665.0,447.8 666.8,447.4 668.5,447.3 670.3,447.3 672.1,447.5 673.9,447.5 675.6,447.5 677.4,449.4 679.2,449.4 680.9,449.4 682.7,449.4 684.5,449.4 686.3,449.4 688.0,449.4 689.8,449.4 691.6,450.2 693.4,450.3 695.1,450.4 696.9,449.6 698.7,449.6 700.4,449.6 702.2,449.5 704.0,449.7 705.8,449.7 707.5,449.7 709.3,451.3 711.1,451.0 712.8,451.3 714.6,450.9 716.4,450.6 718.2,450.4 719.9,448.7 721.7,448.7 723.5,448.8 725.3,449.0 727.0,449.0 728.8,449.4 730.6,449.4 732.3,449.4 734.1,450.0 735.9,449.9 737.7,450.1 739.4,450.1 741.2,450.6 743.0,450.5 744.7,451.9 746.5,453.4 748.3,454.7 750.1,456.1 751.8,456.8 753.6,457.3 755.4,457.3 757.2,457.2 758.9,457.2 760.7,457.2 762.5,457.1 764.2,457.1 766.0,457.2 767.8,457.2 769.6,457.2 771.3,457.2 773.1,457.1 774.9,457.1 776.6,457.1 778.4,457.1 780.2,457.6 782.0,457.6 783.7,457.5 785.5,457.6 787.3,457.5 789.1,457.4 790.8,457.4 792.6,457.4 794.4,457.3 796.1,457.4 797.9,457.3 799.7,457.3 801.5,457.3 803.2,457.3 805.0,457.3 806.8,457.3 808.5,457.3 810.3,458.1 812.1,458.1 813.9,458.1 815.6,458.2 817.4,458.2 819.2,458.2 820.9,458.2 822.7,458.3 824.5,458.6 826.3,458.6 828.0,459.0 829.8,459.3 831.6,459.6 833.4,461.4 835.1,461.3 836.9,461.2 838.7,461.1 840.4,461.1 842.2,461.1 844.0,461.1 845.8,461.1 847.5,461.1 849.3,461.1 851.1,461.1 852.8,461.1 854.6,461.1 856.4,461.2 858.2,461.2 859.9,461.2 861.7,461.2 863.5,461.1 865.3,461.1 867.0,461.1 868.8,461.1 870.6,461.1 872.3,461.1 874.1,461.1 875.9,461.2 877.7,461.0 879.4,461.0 881.2,461.0 883.0,461.0 884.7,461.0 886.5,461.1 888.3,461.1 890.1,461.1 891.8,461.1 893.6,461.1 895.4,461.1 897.2,461.1 898.9,461.1 900.7,461.1 902.5,461.1 904.2,461.1 906.0,461.1 907.8,461.3 909.6,461.1 911.3,461.0 913.1,461.1 914.9,461.1 916.6,461.0 918.4,461.0 920.2,461.0 922.0,461.0 923.7,461.0 925.5,461.0 927.3,461.0 929.1,461.0 930.8,461.0 932.6,461.0 934.4,461.0 936.1,461.0 937.9,461.0 939.7,460.8 941.5,460.8 943.2,460.8 945.0,460.8 946.8,460.8 948.5,460.8 950.3,460.9 952.1,460.9 953.9,460.9 955.6,460.9 957.4,460.9 959.2,460.9 960.9,460.8 962.7,460.9 964.5,460.9 966.3,460.9 968.0,460.8 969.8,460.8 971.6,460.8 973.4,460.8 975.1,460.8 976.9,460.8 978.7,460.8 980.4,460.8 982.2,460.8 984.0,460.8 985.8,460.8 987.5,460.8 989.3,460.8 991.1,460.9 992.8,460.9 994.6,460.9 996.4,460.9 998.2,460.9 999.9,460.8 1001.7,460.8 1003.5,460.8 1005.3,460.8 1007.0,460.8 1008.8,460.7 1010.6,460.7 1012.3,460.6 1014.1,460.7 1015.9,460.7 1017.7,460.7 1019.4,460.7 1021.2,460.7 1023.0,460.6 1024.7,460.6 1026.5,460.6 1028.3,460.6 1030.1,460.7 1031.8,460.7 1033.6,460.7 1035.4,460.7 1037.2,460.7 1038.9,460.6 1040.7,460.6 1042.5,460.6 1044.2,460.6 1046.0,460.6 1047.8,460.6 1049.6,460.6 1051.3,460.6 1053.1,460.5 1054.9,460.5 1056.6,460.4 1058.4,460.4 1060.2,460.4 1062.0,460.3 1063.7,460.3 1065.5,460.3 1067.3,460.3 1069.1,460.3 1070.8,460.3 1072.6,460.3 1074.4,460.1 1076.1,460.0 1077.9,460.0 1079.7,460.0 1081.5,460.0 1083.2,460.0 1085.0,460.0 1086.8,460.0 1088.5,459.9 1090.3,459.9 1092.1,459.9 1093.9,459.9 1095.6,459.9 1097.4,459.9 1099.2,459.9 1100.9,459.8 1102.7,459.8 1104.5,459.8 1106.3,459.6 1108.0,459.6 1109.8,459.6 1111.6,459.6 1113.4,459.6 1115.1,459.6 1116.9,459.6 1118.7,459.6 1120.4,459.6 1122.2,459.5 1124.0,459.5 1125.8,459.5 1127.5,459.5 1129.3,459.5 1131.1,459.4 1132.8,459.4 1134.6,459.4 1136.4,459.4 1138.2,459.3 1139.9,459.3 1141.7,459.2 1143.5,459.0 1145.3,458.8 1147.0,458.6 1148.8,458.5 1150.6,458.5 1152.3,458.5 1154.1,458.5 1155.9,458.5 1157.7,458.5 1159.4,458.5 1161.2,458.5 1163.0,458.4 1164.7,458.4 1166.5,458.4 1168.3,458.4 1170.1,458.4 1171.8,458.4 1173.6,458.4 1175.4,458.4 1177.2,458.4 1178.9,458.4 1180.7,458.4 1182.5,458.4 1184.2,458.4 1186.0,458.4 1187.8,458.4 1189.6,458.4 1191.3,458.4 1193.1,458.4 1194.9,458.4 1196.6,458.4 1198.4,458.4 1200.2,458.4 1202.0,458.4 1203.7,458.4 1205.5,458.4 1207.3,458.3 1209.1,458.3 1210.8,458.3 1212.6,458.3 1214.4,458.3 1216.1,458.3 1217.9,458.2 1219.7,458.2 1221.5,458.2 1223.2,458.2 1225.0,458.1 1226.8,458.1 1228.5,458.0 1230.3,457.8 1232.1,457.8 1233.9,457.8 1235.6,457.8 1237.4,457.8 1239.2,457.8 1240.9,457.8 1242.7,457.8 1244.5,457.8 1246.3,457.8 1248.0,457.8 1249.8,457.8 1251.6,457.8 1253.4,457.8 1255.1,457.8 1256.9,457.8 1258.7,457.8 1260.4,457.8 1262.2,457.8 1264.0,457.8 1265.8,457.8 1267.5,457.8 1269.3,457.8 1271.1,457.8 1272.8,457.8 1274.6,457.8 1276.4,457.8 1278.2,457.8 1279.9,457.8 1281.7,457.8 1283.5,457.8 1285.3,457.8 1287.0,457.8 1288.8,457.8 1290.6,457.8 1292.3,457.8 1294.1,457.8 1295.9,457.8 1297.7,457.7 1299.4,457.7 1301.2,457.7 1303.0,457.7 1304.7,457.7 1306.5,457.7 1308.3,457.7 1310.1,457.7 1311.8,457.7 1313.6,457.7 1315.4,457.7 1317.2,457.7 1318.9,457.7 1320.7,457.7 1322.5,457.7 1324.2,457.7 1326.0,457.7 1327.8,457.7 1329.6,457.7 1331.3,457.7 1333.1,457.7 1334.9,457.8 1336.6,457.8 1338.4,457.8 1340.2,457.8 1342.0,457.8 1343.7,457.8 1345.5,457.8 1347.3,457.8 1349.1,457.7 1350.8,457.7 1352.6,457.7 1354.4,457.7 1356.1,457.7 1357.9,457.7 1359.7,457.7 1361.5,457.7 1363.2,457.7 1365.0,457.7" fill="none" stroke="#9467bd" stroke-width="1.6" opacity="0.9"/>
<polyline points="105.0,456.4 106.8,456.4 108.5,456.4 110.3,456.4 112.1,456.4 113.9,456.3 115.6,454.6 117.4,454.6 119.2,453.5 120.9,454.3 122.7,454.0 124.5,453.7 126.3,454.0 128.0,454.1 129.8,454.7 131.6,454.8 133.4,454.7 135.1,454.7 136.9,455.0 138.7,455.2 140.4,455.3 142.2,455.4 144.0,455.5 145.8,455.5 147.5,455.5 149.3,455.3 151.1,455.4 152.8,455.4 154.6,455.4 156.4,455.4 158.2,455.5 159.9,455.5 161.7,455.6 163.5,455.6 165.3,455.6 167.0,455.7 168.8,455.7 170.6,455.8 172.3,455.8 174.1,455.8 175.9,455.7 177.7,455.7 179.4,455.7 181.2,455.7 183.0,455.7 184.7,455.7 186.5,455.8 188.3,455.7 190.1,455.7 191.8,456.8 193.6,457.2 195.4,457.2 197.2,457.5 198.9,457.5 200.7,458.0 202.5,458.2 204.2,458.2 206.0,458.2 207.8,458.3 209.6,458.0 211.3,457.1 213.1,456.9 214.9,456.9 216.6,456.9 218.4,456.9 220.2,456.9 222.0,456.9 223.7,457.0 225.5,457.1 227.3,456.9 229.1,458.2 230.8,457.9 232.6,458.8 234.4,458.8 236.1,459.3 237.9,459.6 239.7,459.5 241.5,459.5 243.2,459.5 245.0,459.4 246.8,459.5 248.5,459.2 250.3,459.2 252.1,459.2 253.9,459.0 255.6,459.0 257.4,459.1 259.2,459.1 260.9,459.2 262.7,459.5 264.5,459.7 266.3,459.7 268.0,459.7 269.8,459.8 271.6,459.8 273.4,459.8 275.1,459.8 276.9,459.8 278.7,459.8 280.4,459.8 282.2,459.8 284.0,459.8 285.8,459.8 287.5,459.8 289.3,459.8 291.1,459.8 292.8,459.8 294.6,460.0 296.4,460.0 298.2,460.2 299.9,460.2 301.7,460.3 303.5,460.3 305.3,460.5 307.0,460.5 308.8,460.5 310.6,460.5 312.3,460.4 314.1,460.5 315.9,460.5 317.7,460.5 319.4,460.5 321.2,460.5 323.0,460.9 324.7,461.8 326.5,462.0 328.3,462.0 330.1,462.0 331.8,462.0 333.6,462.0 335.4,462.0 337.2,462.0 338.9,462.0 340.7,462.4 342.5,462.9 344.2,463.2 346.0,463.2 347.8,463.1 349.6,462.6 351.3,461.8 353.1,461.9 354.9,461.9 356.6,461.9 358.4,462.0 360.2,462.1 362.0,462.4 363.7,462.4 365.5,462.5 367.3,462.5 369.1,462.5 370.8,462.6 372.6,462.6 374.4,462.6 376.1,462.7 377.9,462.7 379.7,462.6 381.5,462.6 383.2,462.3 385.0,462.3 386.8,462.4 388.5,462.4 390.3,462.4 392.1,462.4 393.9,462.3 395.6,462.3 397.4,462.4 399.2,462.3 400.9,462.3 402.7,462.3 404.5,462.2 406.3,461.3 408.0,461.3 409.8,461.2 411.6,461.2 413.4,461.2 415.1,461.2 416.9,461.2 418.7,460.7 420.4,460.8 422.2,460.7 424.0,460.7 425.8,461.0 427.5,461.0 429.3,461.1 431.1,460.9 432.8,461.1 434.6,461.3 436.4,461.6 438.2,461.3 439.9,461.4 441.7,461.4 443.5,461.4 445.3,461.4 447.0,461.6 448.8,461.6 450.6,461.5 452.3,461.7 454.1,461.6 455.9,461.9 457.7,461.9 459.4,462.1 461.2,462.1 463.0,462.7 464.7,463.4 466.5,463.0 468.3,463.0 470.1,462.7 471.8,462.7 473.6,462.7 475.4,462.6 477.2,462.5 478.9,462.5 480.7,461.9 482.5,461.3 484.2,461.3 486.0,460.2 487.8,460.0 489.6,459.7 491.3,459.6 493.1,459.6 494.9,459.6 496.6,459.8 498.4,459.1 500.2,459.1 502.0,457.7 503.7,457.4 505.5,457.4 507.3,457.5 509.1,457.5 510.8,457.5 512.6,456.9 514.4,456.7 516.1,456.8 517.9,456.7 519.7,457.5 521.5,457.5 523.2,457.5 525.0,457.5 526.8,457.4 528.5,457.2 530.3,457.1 532.1,457.5 533.9,456.9 535.6,457.0 537.4,456.3 539.2,454.8 540.9,454.0 542.7,454.1 544.5,454.4 546.3,454.3 548.0,454.3 549.8,454.3 551.6,454.8 553.4,454.7 555.1,454.7 556.9,454.7 558.7,453.9 560.4,453.8 562.2,453.9 564.0,454.2 565.8,454.1 567.5,454.1 569.3,454.1 571.1,454.2 572.8,454.2 574.6,454.1 576.4,454.1 578.2,454.2 579.9,454.6 581.7,454.4 583.5,454.4 585.3,454.5 587.0,454.5 588.8,454.2 590.6,452.9 592.3,452.9 594.1,452.8 595.9,453.3 597.7,453.2 599.4,453.2 601.2,453.3 603.0,453.6 604.7,453.6 606.5,453.6 608.3,453.6 610.1,453.8 611.8,454.5 613.6,454.5 615.4,455.7 617.2,456.0 618.9,456.0 620.7,455.2 622.5,455.2 624.2,454.1 626.0,454.5 627.8,453.2 629.6,452.9 631.3,452.4 633.1,452.4 634.9,452.2 636.6,452.1 638.4,452.1 640.2,452.0 642.0,452.2 643.7,452.2 645.5,452.4 647.3,452.9 649.1,453.0 650.8,453.3 652.6,454.7 654.4,455.6 656.1,455.5 657.9,454.9 659.7,453.2 661.5,452.0 663.2,452.0 665.0,451.8 666.8,451.2 668.5,451.1 670.3,451.1 672.1,451.7 673.9,451.7 675.6,451.7 677.4,451.8 679.2,451.9 680.9,452.0 682.7,451.8 684.5,451.9 686.3,451.9 688.0,452.0 689.8,452.0 691.6,450.5 693.4,450.6 695.1,449.2 696.9,449.4 698.7,448.8 700.4,448.8 702.2,447.9 704.0,449.3 705.8,449.3 707.5,450.1 709.3,450.2 711.1,449.6 712.8,450.7 714.6,450.7 716.4,450.7 718.2,450.7 719.9,450.6 721.7,450.5 723.5,450.5 725.3,450.5 727.0,450.5 728.8,450.6 730.6,450.6 732.3,450.6 734.1,451.5 735.9,451.5 737.7,452.6 739.4,452.5 741.2,454.0 743.0,454.1 744.7,454.7 746.5,454.7 748.3,454.9 750.1,455.0 751.8,455.0 753.6,455.1 755.4,455.1 757.2,455.1 758.9,455.1 760.7,455.1 762.5,454.9 764.2,455.1 766.0,455.0 767.8,454.8 769.6,454.6 771.3,455.1 773.1,456.5 774.9,457.7 776.6,457.7 778.4,457.9 780.2,458.0 782.0,458.1 783.7,458.0 785.5,458.2 787.3,457.9 789.1,457.9 790.8,457.8 792.6,457.7 794.4,457.1 796.1,457.3 797.9,457.3 799.7,457.2 801.5,457.2 803.2,457.2 805.0,458.8 806.8,458.8 808.5,460.2 810.3,460.3 812.1,460.8 813.9,460.6 815.6,461.6 817.4,460.8 819.2,460.8 820.9,460.7 822.7,458.8 824.5,459.2 826.3,457.9 828.0,457.4 829.8,455.4 831.6,453.5 833.4,451.6 835.1,450.1 836.9,449.0 838.7,448.8 840.4,448.5 842.2,448.4 844.0,447.1 845.8,446.9 847.5,444.8 849.3,442.9 851.1,442.1 852.8,440.3 854.6,440.2 856.4,440.2 858.2,440.2 859.9,440.1 861.7,439.9 863.5,439.9 865.3,439.8 867.0,439.8 868.8,439.8 870.6,439.8 872.3,439.8 874.1,439.8 875.9,440.0 877.7,440.0 879.4,439.8 881.2,440.0 883.0,440.2 884.7,440.3 886.5,440.7 888.3,440.7 890.1,440.7 891.8,440.3 893.6,440.5 895.4,440.6 897.2,440.7 898.9,440.7 900.7,440.8 902.5,440.8 904.2,440.8 906.0,440.9 907.8,441.5 909.6,441.5 911.3,441.4 913.1,441.5 914.9,441.4 916.6,441.1 918.4,441.0 920.2,441.0 922.0,441.1 923.7,441.0 925.5,441.2 927.3,441.3 929.1,441.2 930.8,442.0 932.6,442.0 934.4,442.0 936.1,443.9 937.9,444.2 939.7,445.5 941.5,446.0 943.2,448.0 945.0,450.0 946.8,452.0 948.5,453.5 950.3,454.5 952.1,454.8 953.9,455.0 955.6,455.1 957.4,456.5 959.2,456.6 960.9,458.6 962.7,460.5 964.5,461.2 966.3,463.1 968.0,463.1 969.8,463.1 971.6,463.1 973.4,463.2 975.1,463.2 976.9,463.2 978.7,463.3 980.4,463.2 982.2,463.3 984.0,463.3 985.8,463.3 987.5,463.3 989.3,463.3 991.1,463.3 992.8,463.5 994.6,463.5 996.4,463.4 998.2,463.3 999.9,463.3 1001.7,463.3 1003.5,463.3 1005.3,463.7 1007.0,464.0 1008.8,463.9 1010.6,463.9 1012.3,463.7 1014.1,463.9 1015.9,463.9 1017.7,464.0 1019.4,464.0 1021.2,464.0 1023.0,463.9 1024.7,463.9 1026.5,464.0 1028.3,464.0 1030.1,464.2 1031.8,464.3 1033.6,464.3 1035.4,464.3 1037.2,464.3 1038.9,464.3 1040.7,464.3 1042.5,464.3 1044.2,464.3 1046.0,464.3 1047.8,464.2 1049.6,464.0 1051.3,463.9 1053.1,463.9 1054.9,463.9 1056.6,463.9 1058.4,463.9 1060.2,463.9 1062.0,463.9 1063.7,463.9 1065.5,463.9 1067.3,463.9 1069.1,463.8 1070.8,463.8 1072.6,463.8 1074.4,463.8 1076.1,463.8 1077.9,463.8 1079.7,463.8 1081.5,463.8 1083.2,463.8 1085.0,463.8 1086.8,463.8 1088.5,463.8 1090.3,463.8 1092.1,463.7 1093.9,463.7 1095.6,463.7 1097.4,463.7 1099.2,463.7 1100.9,463.5 1102.7,463.5 1104.5,463.4 1106.3,463.4 1108.0,463.4 1109.8,463.3 1111.6,463.3 1113.4,463.3 1115.1,463.3 1116.9,463.2 1118.7,463.2 1120.4,463.2 1122.2,463.2 1124.0,463.2 1125.8,463.2 1127.5,463.2 1129.3,463.2 1131.1,463.1 1132.8,463.1 1134.6,463.0 1136.4,463.0 1138.2,462.8 1139.9,462.8 1141.7,462.7 1143.5,462.7 1145.3,462.7 1147.0,462.6 1148.8,462.6 1150.6,462.6 1152.3,462.6 1154.1,462.6 1155.9,462.6 1157.7,462.6 1159.4,462.6 1161.2,462.6 1163.0,462.6 1164.7,462.6 1166.5,462.6 1168.3,462.5 1170.1,462.3 1171.8,462.1 1173.6,462.1 1175.4,462.1 1177.2,462.0 1178.9,462.0 1180.7,462.0 1182.5,462.0 1184.2,462.0 1186.0,462.0 1187.8,462.0 1189.6,462.0 1191.3,462.0 1193.1,461.9 1194.9,461.9 1196.6,461.9 1198.4,461.9 1200.2,461.9 1202.0,461.8 1203.7,461.8 1205.5,461.6 1207.3,461.6 1209.1,461.5 1210.8,461.5 1212.6,461.4 1214.4,461.4 1216.1,461.4 1217.9,461.4 1219.7,461.4 1221.5,461.3 1223.2,461.3 1225.0,461.3 1226.8,461.3 1228.5,461.3 1230.3,461.2 1232.1,461.2 1233.9,461.2 1235.6,461.2 1237.4,461.2 1239.2,461.2 1240.9,461.2 1242.7,461.2 1244.5,461.2 1246.3,461.2 1248.0,461.2 1249.8,461.2 1251.6,461.2 1253.4,461.2 1255.1,461.2 1256.9,461.2 1258.7,461.2 1260.4,461.2 1262.2,461.2 1264.0,461.2 1265.8,461.2 1267.5,461.2 1269.3,461.2 1271.1,461.2 1272.8,461.2 1274.6,461.2 1276.4,461.2 1278.2,461.1 1279.9,461.1 1281.7,461.1 1283.5,461.1 1285.3,461.1 1287.0,461.1 1288.8,461.1 1290.6,461.0 1292.3,461.0 1294.1,461.0 1295.9,461.0 1297.7,460.9 1299.4,460.9 1301.2,460.9 1303.0,460.9 1304.7,460.8 1306.5,460.8 1308.3,460.8 1310.1,460.8 1311.8,460.8 1313.6,460.8 1315.4,460.8 1317.2,460.8 1318.9,460.8 1320.7,460.8 1322.5,460.8 1324.2,460.8 1326.0,460.8 1327.8,460.7 1329.6,460.7 1331.3,460.7 1333.1,460.4 1334.9,460.4 1336.6,460.2 1338.4,460.2 1340.2,459.9 1342.0,459.7 1343.7,459.4 1345.5,459.2 1347.3,459.1 1349.1,459.1 1350.8,459.0 1352.6,459.0 1354.4,458.8 1356.1,458.8 1357.9,458.6 1359.7,458.3 1361.5,458.2 1363.2,458.0 1365.0,458.0" fill="none" stroke="#d62728" stroke-width="1.6" opacity="0.9"/>
<polyline points="105.0,458.3 106.8,458.3 108.5,458.3 110.3,458.4 112.1,458.4 113.9,458.4 115.6,458.4 117.4,458.4 119.2,458.4 120.9,458.4 122.7,458.4 124.5,458.4 126.3,458.4 128.0,458.4 129.8,458.4 131.6,458.4 133.4,458.4 135.1,458.4 136.9,458.4 138.7,458.4 140.4,458.4 142.2,458.4 144.0,458.3 145.8,458.3 147.5,458.3 149.3,458.3 151.1,458.3 152.8,458.3 154.6,458.3 156.4,458.3 158.2,458.3 159.9,458.3 161.7,458.3 163.5,458.3 165.3,458.1 167.0,458.1 168.8,458.1 170.6,458.1 172.3,458.1 174.1,458.1 175.9,458.3 177.7,458.3 179.4,458.4 181.2,458.4 183.0,458.3 184.7,458.3 186.5,458.3 188.3,458.2 190.1,458.1 191.8,458.1 193.6,458.0 195.4,458.0 197.2,458.0 198.9,458.0 200.7,458.0 202.5,458.0 204.2,458.0 206.0,458.0 207.8,458.0 209.6,458.0 211.3,457.7 213.1,457.6 214.9,457.6 216.6,457.6 218.4,457.6 220.2,457.6 222.0,457.6 223.7,457.6 225.5,457.6 227.3,457.5 229.1,457.5 230.8,457.5 232.6,457.5 234.4,457.5 236.1,457.5 237.9,457.5 239.7,457.5 241.5,457.6 243.2,457.6 245.0,457.5 246.8,457.6 248.5,457.6 250.3,457.6 252.1,457.6 253.9,457.6 255.6,457.6 257.4,457.6 259.2,457.6 260.9,457.6 262.7,457.6 264.5,457.6 266.3,457.6 268.0,457.6 269.8,457.6 271.6,457.6 273.4,457.6 275.1,457.6 276.9,457.6 278.7,457.8 280.4,457.8 282.2,457.8 284.0,457.7 285.8,457.1 287.5,456.9 289.3,456.9 291.1,456.9 292.8,456.9 294.6,456.9 296.4,456.9 298.2,456.9 299.9,456.9 301.7,456.9 303.5,456.9 305.3,456.9 307.0,456.8 308.8,456.8 310.6,456.7 312.3,456.7 314.1,456.6 315.9,456.6 317.7,456.6 319.4,456.6 321.2,456.6 323.0,456.7 324.7,456.9 326.5,457.0 328.3,457.0 330.1,457.1 331.8,457.1 333.6,457.1 335.4,457.1 337.2,457.1 338.9,457.1 340.7,457.1 342.5,457.1 344.2,457.1 346.0,457.1 347.8,457.1 349.6,457.1 351.3,457.1 353.1,456.9 354.9,456.9 356.6,456.9 358.4,457.0 360.2,457.0 362.0,457.0 363.7,457.0 365.5,457.0 367.3,457.0 369.1,457.0 370.8,457.0 372.6,457.0 374.4,457.0 376.1,457.0 377.9,457.0 379.7,457.0 381.5,457.0 383.2,457.0 385.0,457.0 386.8,457.0 388.5,457.0 390.3,457.1 392.1,457.1 393.9,457.1 395.6,457.1 397.4,457.1 399.2,457.8 400.9,458.0 402.7,458.0 404.5,458.0 406.3,458.0 408.0,458.0 409.8,458.0 411.6,458.0 413.4,457.9 415.1,457.9 416.9,457.9 418.7,457.9 420.4,458.1 422.2,458.1 424.0,458.1 425.8,458.2 427.5,458.2 429.3,458.2 431.1,458.2 432.8,458.2 434.6,458.2 436.4,458.2 438.2,458.2 439.9,458.2 441.7,458.2 443.5,458.2 445.3,458.2 447.0,458.2 448.8,458.2 450.6,458.2 452.3,458.2 454.1,458.2 455.9,458.2 457.7,458.3 459.4,458.3 461.2,458.3 463.0,458.3 464.7,458.3 466.5,458.5 468.3,458.5 470.1,458.6 471.8,458.7 473.6,458.7 475.4,458.6 477.2,458.7 478.9,458.7 480.7,458.7 482.5,458.6 484.2,458.6 486.0,458.6 487.8,458.5 489.6,458.5 491.3,458.5 493.1,458.5 494.9,458.6 496.6,458.6 498.4,458.6 500.2,458.6 502.0,458.6 503.7,458.5 505.5,458.5 507.3,458.4 509.1,458.4 510.8,458.4 512.6,458.4 514.4,458.4 516.1,458.3 517.9,458.3 519.7,458.1 521.5,458.0 523.2,458.0 525.0,458.0 526.8,458.0 528.5,458.0 530.3,458.0 532.1,457.7 533.9,457.6 535.6,457.6 537.4,457.6 539.2,457.6 540.9,457.7 542.7,457.8 544.5,457.9 546.3,458.1 548.0,458.1 549.8,458.2 551.6,458.2 553.4,458.3 555.1,458.3 556.9,458.5 558.7,458.5 560.4,458.5 562.2,458.5 564.0,458.5 565.8,458.5 567.5,458.6 569.3,458.6 571.1,458.6 572.8,458.6 574.6,458.6 576.4,458.6 578.2,458.6 579.9,458.6 581.7,458.6 583.5,458.7 585.3,458.7 587.0,458.7 588.8,458.7 590.6,458.7 592.3,458.7 594.1,458.7 595.9,458.7 597.7,458.9 599.4,459.3 601.2,459.4 603.0,459.6 604.7,459.6 606.5,459.6 608.3,459.6 610.1,459.8 611.8,460.0 613.6,460.1 615.4,460.1 617.2,460.2 618.9,460.2 620.7,460.3 622.5,460.3 624.2,460.4 626.0,460.4 627.8,460.4 629.6,460.5 631.3,460.5 633.1,461.0 634.9,461.3 636.6,461.5 638.4,461.5 640.2,461.5 642.0,461.5 643.7,461.5 645.5,461.8 647.3,461.9 649.1,462.0 650.8,462.2 652.6,462.5 654.4,462.7 656.1,462.9 657.9,463.0 659.7,463.2 661.5,463.5 663.2,463.7 665.0,464.0 666.8,464.2 668.5,464.5 670.3,464.0 672.1,464.0 673.9,464.3 675.6,464.5 677.4,464.8 679.2,465.0 680.9,465.3 682.7,465.4 684.5,465.6 686.3,465.8 688.0,466.1 689.8,466.1 691.6,466.2 693.4,466.2 695.1,466.3 696.9,466.6 698.7,466.8 700.4,467.0 702.2,467.3 704.0,467.4 705.8,467.7 707.5,468.0 709.3,468.2 711.1,468.5 712.8,468.5 714.6,468.5 716.4,468.5 718.2,468.5 719.9,468.5 721.7,468.6 723.5,468.6 725.3,468.7 727.0,468.7 728.8,468.7 730.6,468.7 732.3,468.8 734.1,468.9 735.9,468.9 737.7,468.9 739.4,468.9 741.2,468.9 743.0,469.1 744.7,469.3 746.5,469.6 748.3,469.7 750.1,469.8 751.8,469.8 753.6,469.9 755.4,470.1 757.2,470.3 758.9,470.5 760.7,470.7 762.5,470.9 764.2,471.1 766.0,471.3 767.8,471.5 769.6,471.7 771.3,471.9 773.1,472.2 774.9,472.4 776.6,472.7 778.4,472.9 780.2,473.2 782.0,473.4 783.7,474.4 785.5,474.6 787.3,474.8 789.1,475.0 790.8,475.1 792.6,475.3 794.4,475.6 796.1,475.8 797.9,475.9 799.7,476.2 801.5,476.4 803.2,476.9 805.0,477.1 806.8,477.3 808.5,477.4 810.3,477.5 812.1,477.5 813.9,477.6 815.6,477.6 817.4,477.5 819.2,477.5 820.9,477.5 822.7,477.5 824.5,477.5 826.3,477.5 828.0,477.5 829.8,477.5 831.6,477.5 833.4,477.5 835.1,477.5 836.9,477.5 838.7,477.5 840.4,477.2 842.2,477.2 844.0,477.4 845.8,477.7 847.5,477.9 849.3,478.2 851.1,478.2 852.8,478.3 854.6,478.4 856.4,478.6 858.2,478.8 859.9,479.1 861.7,479.3 863.5,479.5 865.3,479.8 867.0,478.4 868.8,478.6 870.6,478.9 872.3,479.2 874.1,479.1 875.9,479.4 877.7,479.6 879.4,479.8 881.2,480.1 883.0,480.4 884.7,480.5 886.5,480.6 888.3,480.6 890.1,480.8 891.8,481.0 893.6,481.0 895.4,480.8 897.2,480.8 898.9,480.8 900.7,480.8 902.5,480.8 904.2,480.8 906.0,480.8 907.8,480.8 909.6,480.8 911.3,480.8 913.1,480.8 914.9,480.8 916.6,480.7 918.4,480.6 920.2,480.5 922.0,480.5 923.7,480.5 925.5,480.6 927.3,480.6 929.1,480.6 930.8,480.6 932.6,480.6 934.4,480.7 936.1,480.7 937.9,480.4 939.7,478.9 941.5,478.0 943.2,476.3 945.0,476.1 946.8,475.8 948.5,475.2 950.3,474.9 952.1,474.8 953.9,473.4 955.6,473.2 957.4,473.2 959.2,473.2 960.9,473.2 962.7,473.2 964.5,473.3 966.3,473.4 968.0,473.7 969.8,473.2 971.6,473.0 973.4,472.8 975.1,472.8 976.9,472.7 978.7,472.6 980.4,474.2 982.2,474.3 984.0,474.3 985.8,474.3 987.5,474.6 989.3,474.5 991.1,474.5 992.8,474.5 994.6,472.6 996.4,470.5 998.2,469.7 999.9,468.3 1001.7,468.1 1003.5,468.1 1005.3,468.1 1007.0,466.4 1008.8,464.8 1010.6,464.7 1012.3,464.7 1014.1,464.1 1015.9,464.1 1017.7,463.8 1019.4,463.8 1021.2,463.3 1023.0,463.1 1024.7,463.0 1026.5,463.0 1028.3,463.1 1030.1,461.2 1031.8,459.8 1033.6,459.0 1035.4,458.8 1037.2,458.6 1038.9,458.5 1040.7,458.5 1042.5,458.5 1044.2,458.0 1046.0,457.4 1047.8,455.6 1049.6,453.6 1051.3,451.9 1053.1,451.9 1054.9,452.3 1056.6,452.7 1058.4,450.9 1060.2,449.1 1062.0,447.7 1063.7,446.0 1065.5,444.1 1067.3,443.9 1069.1,443.4 1070.8,441.4 1072.6,439.4 1074.4,437.3 1076.1,435.6 1077.9,433.6 1079.7,432.9 1081.5,430.9 1083.2,429.6 1085.0,427.7 1086.8,426.0 1088.5,425.5 1090.3,425.5 1092.1,424.3 1093.9,422.3 1095.6,420.4 1097.4,418.4 1099.2,416.3 1100.9,415.3 1102.7,413.5 1104.5,411.4 1106.3,409.4 1108.0,409.4 1109.8,411.0 1111.6,411.8 1113.4,413.3 1115.1,413.6 1116.9,413.5 1118.7,413.0 1120.4,414.7 1122.2,415.7 1124.0,415.8 1125.8,415.7 1127.5,416.3 1129.3,416.1 1131.1,415.6 1132.8,415.7 1134.6,416.1 1136.4,416.3 1138.2,415.7 1139.9,414.8 1141.7,412.8 1143.5,412.7 1145.3,413.1 1147.0,413.8 1148.8,413.9 1150.6,412.9 1152.3,411.5 1154.1,409.4 1155.9,408.2 1157.7,406.8 1159.4,405.4 1161.2,405.6 1163.0,406.8 1164.7,407.1 1166.5,406.6 1168.3,405.0 1170.1,404.2 1171.8,404.2 1173.6,404.3 1175.4,404.3 1177.2,404.3 1178.9,404.8 1180.7,404.5 1182.5,403.8 1184.2,404.0 1186.0,404.8 1187.8,405.7 1189.6,405.3 1191.3,405.3 1193.1,404.0 1194.9,404.3 1196.6,404.1 1198.4,404.4 1200.2,404.3 1202.0,402.8 1203.7,401.9 1205.5,402.0 1207.3,403.4 1209.1,405.3 1210.8,406.8 1212.6,408.9 1214.4,410.0 1216.1,411.8 1217.9,413.8 1219.7,415.9 1221.5,417.8 1223.2,418.3 1225.0,418.3 1226.8,418.4 1228.5,418.3 1230.3,418.2 1232.1,418.8 1233.9,418.9 1235.6,419.6 1237.4,419.7 1239.2,419.7 1240.9,418.0 1242.7,416.4 1244.5,415.1 1246.3,413.1 1248.0,412.7 1249.8,410.7 1251.6,409.3 1253.4,408.2 1255.1,408.6 1256.9,408.8 1258.7,407.8 1260.4,406.5 1262.2,404.5 1264.0,403.7 1265.8,403.2 1267.5,403.3 1269.3,402.5 1271.1,402.3 1272.8,402.5 1274.6,402.7 1276.4,401.6 1278.2,401.3 1279.9,401.4 1281.7,402.9 1283.5,403.7 1285.3,404.7 1287.0,404.9 1288.8,405.2 1290.6,407.2 1292.3,408.9 1294.1,411.0 1295.9,412.5 1297.7,414.3 1299.4,415.5 1301.2,416.8 1303.0,418.9 1304.7,420.9 1306.5,423.0 1308.3,424.7 1310.1,426.6 1311.8,428.3 1313.6,430.3 1315.4,432.2 1317.2,433.2 1318.9,434.3 1320.7,434.9 1322.5,434.9 1324.2,435.3 1326.0,435.2 1327.8,435.2 1329.6,435.1 1331.3,435.1 1333.1,435.1 1334.9,435.0 1336.6,434.9 1338.4,434.8 1340.2,434.8 1342.0,434.8 1343.7,434.8 1345.5,434.8 1347.3,434.8 1349.1,434.7 1350.8,434.6 1352.6,434.6 1354.4,436.3 1356.1,438.0 1357.9,440.0 1359.7,442.0 1361.5,442.4 1363.2,444.4 1365.0,446.3" fill="none" stroke="#ff7f0e" stroke-width="1.6" opacity="0.9"/>
<polyline points="105.0,463.2 106.8,463.2 108.5,463.2 110.3,463.7 112.1,463.4 113.9,463.4 115.6,463.6 117.4,463.8 119.2,463.8 120.9,464.0 122.7,464.1 124.5,464.2 126.3,464.2 128.0,464.2 129.8,464.0 131.6,463.9 133.4,463.4 135.1,463.6 136.9,463.6 138.7,463.7 140.4,463.7 142.2,463.7 144.0,463.7 145.8,463.7 147.5,463.7 149.3,463.7 151.1,463.8 152.8,463.8 154.6,463.8 156.4,463.8 158.2,463.7 159.9,463.5 161.7,463.6 163.5,463.6 165.3,463.6 167.0,463.3 168.8,463.3 170.6,463.4 172.3,463.4 174.1,463.4 175.9,463.5 177.7,463.5 179.4,463.3 181.2,463.2 183.0,463.3 184.7,463.3 186.5,463.4 188.3,463.2 190.1,463.2 191.8,463.2 193.6,463.2 195.4,463.2 197.2,463.0 198.9,463.0 200.7,463.0 202.5,463.1 204.2,463.1 206.0,463.2 207.8,463.5 209.6,463.5 211.3,463.5 213.1,463.4 214.9,463.3 216.6,463.4 218.4,463.4 220.2,463.5 222.0,463.5 223.7,463.5 225.5,463.1 227.3,463.0 229.1,462.8 230.8,462.7 232.6,461.3 234.4,461.3 236.1,461.1 237.9,461.0 239.7,460.9 241.5,460.3 243.2,458.4 245.0,458.2 246.8,457.8 248.5,457.2 250.3,455.2 252.1,453.9 253.9,453.9 255.6,453.9 257.4,453.8 259.2,453.8 260.9,453.8 262.7,453.8 264.5,453.8 266.3,453.8 268.0,453.7 269.8,453.8 271.6,453.8 273.4,453.7 275.1,453.6 276.9,453.6 278.7,453.6 280.4,453.6 282.2,453.6 284.0,453.6 285.8,453.0 287.5,451.6 289.3,451.6 291.1,451.5 292.8,451.6 294.6,451.6 296.4,451.6 298.2,451.4 299.9,451.4 301.7,451.6 303.5,451.6 305.3,451.6 307.0,451.6 308.8,451.6 310.6,451.7 312.3,451.7 314.1,451.7 315.9,451.7 317.7,451.7 319.4,451.7 321.2,451.7 323.0,451.7 324.7,450.7 326.5,450.4 328.3,450.4 330.1,450.4 331.8,450.3 333.6,450.3 335.4,450.2 337.2,450.2 338.9,450.6 340.7,450.6 342.5,450.7 344.2,450.9 346.0,452.2 347.8,452.2 349.6,452.4 351.3,452.3 353.1,452.3 354.9,452.9 356.6,454.8 358.4,455.0 360.2,455.9 362.0,456.5 363.7,458.5 365.5,459.8 367.3,459.8 369.1,459.8 370.8,459.8 372.6,459.8 374.4,459.8 376.1,459.8 377.9,459.7 379.7,459.4 381.5,459.4 383.2,459.0 385.0,459.0 386.8,459.0 388.5,459.0 390.3,458.9 392.1,459.0 393.9,458.9 395.6,458.9 397.4,458.9 399.2,459.4 400.9,460.8 402.7,458.7 404.5,457.0 406.3,456.9 408.0,456.9 409.8,456.9 411.6,456.9 413.4,456.4 415.1,456.3 416.9,456.3 418.7,456.3 420.4,456.3 422.2,456.3 424.0,456.3 425.8,456.3 427.5,456.3 429.3,456.3 431.1,456.3 432.8,456.2 434.6,456.2 436.4,456.2 438.2,457.3 439.9,457.5 441.7,457.6 443.5,457.6 445.3,457.6 447.0,457.5 448.8,457.5 450.6,457.5 452.3,457.5 454.1,457.5 455.9,457.6 457.7,457.6 459.4,457.5 461.2,457.5 463.0,457.5 464.7,456.5 466.5,456.5 468.3,456.6 470.1,456.6 471.8,456.6 473.6,456.5 475.4,456.5 477.2,456.5 478.9,456.5 480.7,456.1 482.5,456.0 484.2,455.6 486.0,455.2 487.8,454.7 489.6,454.7 491.3,454.6 493.1,454.6 494.9,454.6 496.6,454.4 498.4,454.3 500.2,452.8 502.0,452.5 503.7,452.2 505.5,452.2 507.3,450.5 509.1,450.6 510.8,450.6 512.6,449.9 514.4,448.2 516.1,450.2 517.9,450.2 519.7,449.7 521.5,448.9 523.2,448.9 525.0,448.9 526.8,449.5 528.5,449.4 530.3,449.3 532.1,448.2 533.9,448.2 535.6,446.3 537.4,445.8 539.2,445.8 540.9,445.8 542.7,445.7 544.5,445.5 546.3,445.5 548.0,445.5 549.8,445.5 551.6,445.3 553.4,445.3 555.1,445.3 556.9,445.3 558.7,444.3 560.4,444.3 562.2,444.3 564.0,444.3 565.8,444.3 567.5,444.2 569.3,444.2 571.1,444.2 572.8,444.3 574.6,444.3 576.4,444.3 578.2,445.5 579.9,445.6 581.7,445.5 583.5,445.5 585.3,445.5 587.0,445.5 588.8,445.5 590.6,445.5 592.3,445.5 594.1,445.8 595.9,445.9 597.7,446.3 599.4,446.5 601.2,446.9 603.0,447.0 604.7,447.0 606.5,447.0 608.3,447.0 610.1,447.6 611.8,447.4 613.6,449.1 615.4,449.4 617.2,449.6 618.9,449.6 620.7,451.2 622.5,451.2 624.2,451.2 626.0,451.8 627.8,453.5 629.6,453.5 631.3,455.4 633.1,455.9 634.9,456.6 636.6,456.5 638.4,456.5 640.2,456.3 642.0,456.4 643.7,456.4 645.5,457.5 647.3,457.6 649.1,459.4 650.8,459.9 652.6,459.9 654.4,459.9 656.1,460.0 657.9,460.2 659.7,460.2 661.5,460.2 663.2,460.2 665.0,460.4 666.8,460.4 668.5,460.4 670.3,460.4 672.1,461.3 673.9,461.3 675.6,461.3 677.4,461.3 679.2,461.3 680.9,461.4 682.7,461.4 684.5,461.4 686.3,461.4 688.0,461.4 689.8,461.3 691.6,461.5 693.4,461.7 695.1,461.8 696.9,461.8 698.7,461.8 700.4,461.7 702.2,461.7 704.0,461.8 705.8,461.8 707.5,461.9 709.3,461.9 711.1,461.9 712.8,462.1 714.6,462.1 716.4,462.1 718.2,462.1 719.9,462.1 721.7,462.1 723.5,462.1 725.3,462.3 727.0,462.3 728.8,462.3 730.6,462.3 732.3,462.3 734.1,462.3 735.9,462.3 737.7,462.3 739.4,462.3 741.2,462.3 743.0,462.2 744.7,462.2 746.5,462.2 748.3,462.2 750.1,462.3 751.8,462.3 753.6,462.2 755.4,462.3 757.2,462.2 758.9,462.1 760.7,461.9 762.5,461.7 764.2,461.7 766.0,461.7 767.8,461.7 769.6,461.7 771.3,461.7 773.1,461.7 774.9,461.8 776.6,461.8 778.4,461.8 780.2,461.8 782.0,461.8 783.7,461.8 785.5,461.8 787.3,461.8 789.1,461.8 790.8,461.8 792.6,461.8 794.4,461.8 796.1,461.8 797.9,461.6 799.7,461.6 801.5,461.6 803.2,461.8 805.0,461.8 806.8,461.8 808.5,461.8 810.3,461.8 812.1,461.8 813.9,461.8 815.6,461.8 817.4,461.8 819.2,461.8 820.9,461.8 822.7,461.8 824.5,461.8 826.3,461.8 828.0,461.8 829.8,461.8 831.6,461.8 833.4,461.8 835.1,461.7 836.9,461.7 838.7,461.6 840.4,461.5 842.2,461.6 844.0,461.6 845.8,461.6 847.5,461.5 849.3,461.5 851.1,461.5 852.8,461.5 854.6,461.4 856.4,461.4 858.2,461.4 859.9,461.3 861.7,461.3 863.5,461.3 865.3,461.2 867.0,461.2 868.8,461.2 870.6,461.2 872.3,461.2 874.1,461.2 875.9,461.2 877.7,461.2 879.4,461.2 881.2,461.2 883.0,461.2 884.7,461.3 886.5,461.4 888.3,461.4 890.1,461.4 891.8,461.4 893.6,461.4 895.4,461.4 897.2,461.4 898.9,461.4 900.7,461.4 902.5,461.4 904.2,461.4 906.0,461.4 907.8,461.4 909.6,461.4 911.3,461.4 913.1,461.2 914.9,461.0 916.6,461.0 918.4,461.0 920.2,461.0 922.0,461.0 923.7,461.0 925.5,461.0 927.3,461.0 929.1,461.0 930.8,461.1 932.6,461.1 934.4,461.1 936.1,461.1 937.9,461.2 939.7,461.2 941.5,461.2 943.2,461.2 945.0,461.3 946.8,461.3 948.5,461.3 950.3,461.3 952.1,461.5 953.9,461.6 955.6,461.6 957.4,461.6 959.2,461.6 960.9,461.7 962.7,461.7 964.5,461.7 966.3,461.8 968.0,461.9 969.8,462.0 971.6,462.0 973.4,462.0 975.1,461.9 976.9,461.9 978.7,462.0 980.4,462.0 982.2,462.1 984.0,462.1 985.8,462.1 987.5,462.2 989.3,462.2 991.1,462.2 992.8,462.2 994.6,462.2 996.4,462.1 998.2,462.1 999.9,462.1 1001.7,462.1 1003.5,462.2 1005.3,462.2 1007.0,462.1 1008.8,462.2 1010.6,462.0 1012.3,462.0 1014.1,462.0 1015.9,462.0 1017.7,461.8 1019.4,461.8 1021.2,461.8 1023.0,461.8 1024.7,461.6 1026.5,461.6 1028.3,461.4 1030.1,461.4 1031.8,461.3 1033.6,461.4 1035.4,461.4 1037.2,461.4 1038.9,461.4 1040.7,461.4 1042.5,461.3 1044.2,461.3 1046.0,461.1 1047.8,461.1 1049.6,461.1 1051.3,461.1 1053.1,461.2 1054.9,461.2 1056.6,461.2 1058.4,461.2 1060.2,461.2 1062.0,461.2 1063.7,461.2 1065.5,461.3 1067.3,461.3 1069.1,461.2 1070.8,461.2 1072.6,461.2 1074.4,461.3 1076.1,461.3 1077.9,461.3 1079.7,461.3 1081.5,461.3 1083.2,461.2 1085.0,461.2 1086.8,461.2 1088.5,459.7 1090.3,457.9 1092.1,457.9 1093.9,458.0 1095.6,458.0 1097.4,458.0 1099.2,458.0 1100.9,458.1 1102.7,458.1 1104.5,458.1 1106.3,458.1 1108.0,458.1 1109.8,458.1 1111.6,458.2 1113.4,458.2 1115.1,458.2 1116.9,458.2 1118.7,458.2 1120.4,458.2 1122.2,458.2 1124.0,458.2 1125.8,458.2 1127.5,458.2 1129.3,458.3 1131.1,458.2 1132.8,458.3 1134.6,458.3 1136.4,458.3 1138.2,458.3 1139.9,458.3 1141.7,458.4 1143.5,458.4 1145.3,458.4 1147.0,458.4 1148.8,458.3 1150.6,458.2 1152.3,458.2 1154.1,458.2 1155.9,458.2 1157.7,458.3 1159.4,458.3 1161.2,458.3 1163.0,458.3 1164.7,458.3 1166.5,458.4 1168.3,458.4 1170.1,458.4 1171.8,458.4 1173.6,458.5 1175.4,458.5 1177.2,458.5 1178.9,458.5 1180.7,458.6 1182.5,458.6 1184.2,458.6 1186.0,458.6 1187.8,458.2 1189.6,458.2 1191.3,458.2 1193.1,458.3 1194.9,458.3 1196.6,458.4 1198.4,458.1 1200.2,458.1 1202.0,459.7 1203.7,461.5 1205.5,461.5 1207.3,461.5 1209.1,461.6 1210.8,461.6 1212.6,461.6 1214.4,461.6 1216.1,461.7 1217.9,461.6 1219.7,461.6 1221.5,461.6 1223.2,461.6 1225.0,461.6 1226.8,461.6 1228.5,461.6 1230.3,461.6 1232.1,461.7 1233.9,461.7 1235.6,461.6 1237.4,461.5 1239.2,461.5 1240.9,461.5 1242.7,461.5 1244.5,461.6 1246.3,461.6 1248.0,461.6 1249.8,461.7 1251.6,461.7 1253.4,461.7 1255.1,461.7 1256.9,461.8 1258.7,461.8 1260.4,461.8 1262.2,461.9 1264.0,462.1 1265.8,462.1 1267.5,462.2 1269.3,462.2 1271.1,462.2 1272.8,462.2 1274.6,462.3 1276.4,462.3 1278.2,462.3 1279.9,462.3 1281.7,460.9 1283.5,460.8 1285.3,460.8 1287.0,460.5 1288.8,460.2 1290.6,460.2 1292.3,460.3 1294.1,460.3 1295.9,460.3 1297.7,460.4 1299.4,460.4 1301.2,460.9 1303.0,460.9 1304.7,460.6 1306.5,460.6 1308.3,460.6 1310.1,460.5 1311.8,460.6 1313.6,460.5 1315.4,460.3 1317.2,460.2 1318.9,460.0 1320.7,459.8 1322.5,459.6 1324.2,459.5 1326.0,459.3 1327.8,459.1 1329.6,458.9 1331.3,458.9 1333.1,458.7 1334.9,458.5 1336.6,458.4 1338.4,458.3 1340.2,458.1 1342.0,458.0 1343.7,457.8 1345.5,457.6 1347.3,457.4 1349.1,457.4 1350.8,457.4 1352.6,457.3 1354.4,457.1 1356.1,457.0 1357.9,456.8 1359.7,456.6 1361.5,456.4 1363.2,456.3 1365.0,456.1" fill="none" stroke="#2ca02c" stroke-width="1.6" opacity="0.9"/>
<polyline points="105.0,451.5 106.8,451.5 108.5,451.5 110.3,450.9 112.1,451.2 113.9,451.3 115.6,452.8 117.4,452.6 119.2,453.6 120.9,452.4 122.7,452.7 124.5,452.8 126.3,452.6 128.0,452.5 129.8,452.1 131.6,452.1 133.4,452.7 135.1,452.5 136.9,452.1 138.7,451.8 140.4,451.6 142.2,451.4 144.0,451.5 145.8,451.4 147.5,451.3 149.3,451.4 151.1,451.3 152.8,451.3 154.6,451.2 156.4,451.2 158.2,450.4 159.9,450.7 161.7,450.5 163.5,450.5 165.3,450.7 167.0,450.7 168.8,450.8 170.6,450.7 172.3,450.6 174.1,450.3 175.9,450.0 177.7,450.0 179.4,450.1 181.2,450.1 183.0,450.0 184.7,450.0 186.5,449.9 188.3,450.4 190.1,450.5 191.8,449.4 193.6,449.0 195.4,449.0 197.2,448.8 198.9,448.7 200.7,448.2 202.5,448.0 204.2,447.9 206.0,447.7 207.8,447.2 209.6,447.6 211.3,448.8 213.1,449.1 214.9,449.0 216.6,449.0 218.4,449.0 220.2,448.9 222.0,448.9 223.7,448.7 225.5,449.3 227.3,449.6 229.1,448.6 230.8,449.0 232.6,449.4 234.4,449.3 236.1,448.8 237.9,448.4 239.7,448.4 241.5,448.9 243.2,450.8 245.0,452.5 246.8,453.9 248.5,454.7 250.3,456.8 252.1,458.2 253.9,458.4 255.6,458.4 257.4,458.4 259.2,458.4 260.9,458.4 262.7,458.1 264.5,458.0 266.3,457.9 268.0,458.1 269.8,457.9 271.6,457.9 273.4,458.3 275.1,458.4 276.9,458.9 278.7,459.0 280.4,459.1 282.2,459.1 284.0,459.2 285.8,460.4 287.5,462.1 289.3,462.1 291.1,462.2 292.8,462.2 294.6,462.0 296.4,462.0 298.2,462.0 299.9,462.0 301.7,461.7 303.5,461.7 305.3,461.5 307.0,461.6 308.8,461.6 310.6,461.5 312.3,461.6 314.1,461.5 315.9,461.6 317.7,461.5 319.4,461.5 321.2,461.4 323.0,460.8 324.7,460.6 326.5,460.7 328.3,460.6 330.1,460.6 331.8,460.6 333.6,460.6 335.4,460.7 337.2,460.7 338.9,460.1 340.7,459.6 342.5,459.1 344.2,458.5 346.0,457.2 347.8,457.4 349.6,457.7 351.3,458.6 353.1,458.7 354.9,458.1 356.6,456.1 358.4,454.3 360.2,452.3 362.0,451.4 363.7,449.3 365.5,447.9 367.3,447.8 369.1,447.9 370.8,447.9 372.6,447.8 374.4,447.8 376.1,447.8 377.9,447.9 379.7,448.2 381.5,448.1 383.2,448.8 385.0,448.8 386.8,448.4 388.5,448.4 390.3,447.8 392.1,447.5 393.9,447.8 395.6,447.8 397.4,447.7 399.2,447.7 400.9,446.6 402.7,448.8 404.5,450.6 406.3,451.6 408.0,451.6 409.8,451.6 411.6,451.7 413.4,452.3 415.1,452.4 416.9,452.4 418.7,453.0 420.4,452.8 422.2,452.9 424.0,452.9 425.8,452.7 427.5,452.6 429.3,453.8 431.1,454.0 432.8,453.9 434.6,453.7 436.4,453.5 438.2,453.1 439.9,453.3 441.7,453.2 443.5,453.1 445.3,453.6 447.0,453.6 448.8,453.6 450.6,453.7 452.3,453.5 454.1,453.7 455.9,453.3 457.7,453.7 459.4,453.5 461.2,453.5 463.0,453.0 464.7,453.7 466.5,454.4 468.3,454.4 470.1,454.5 471.8,454.6 473.6,454.8 475.4,454.8 477.2,454.9 478.9,455.0 480.7,456.3 482.5,456.9 484.2,457.4 486.0,459.2 487.8,459.9 489.6,460.6 491.3,460.7 493.1,460.8 494.9,460.9 496.6,461.0 498.4,463.0 500.2,464.5 502.0,466.4 503.7,467.0 505.5,467.1 507.3,468.7 509.1,468.7 510.8,468.6 512.6,469.3 514.4,470.7 516.1,468.7 517.9,468.8 519.7,468.6 521.5,469.5 523.2,469.5 525.0,469.6 526.8,469.1 528.5,469.6 530.3,469.7 532.1,470.6 533.9,471.5 535.6,473.3 537.4,474.7 539.2,476.1 540.9,477.0 542.7,475.8 544.5,475.9 546.3,476.5 548.0,476.7 549.8,476.8 551.6,476.5 553.4,476.0 555.1,476.1 556.9,475.8 558.7,477.3 560.4,477.3 562.2,477.3 564.0,478.8 565.8,479.0 567.5,479.0 569.3,479.1 571.1,478.5 572.8,478.5 574.6,478.5 576.4,478.4 578.2,477.6 579.9,476.7 581.7,477.0 583.5,476.9 585.3,476.8 587.0,476.6 588.8,476.8 590.6,478.5 592.3,478.4 594.1,477.9 595.9,478.8 597.7,478.2 599.4,477.8 601.2,477.2 603.0,476.3 604.7,476.3 606.5,476.3 608.3,476.2 610.1,475.3 611.8,473.5 613.6,471.8 615.4,470.5 617.2,469.9 618.9,469.8 620.7,469.4 622.5,469.4 624.2,470.7 626.0,469.1 627.8,469.1 629.6,469.4 631.3,469.3 633.1,469.9 634.9,470.4 636.6,471.8 638.4,472.5 640.2,473.3 642.0,472.9 643.7,472.9 645.5,471.3 647.3,470.5 649.1,468.4 650.8,467.3 652.6,465.6 654.4,464.5 656.1,464.0 657.9,464.0 659.7,464.6 661.5,465.5 663.2,465.1 665.0,464.4 666.8,465.2 668.5,465.2 670.3,465.7 672.1,463.9 673.9,463.6 675.6,463.4 677.4,461.2 679.2,460.8 680.9,460.4 682.7,460.5 684.5,460.2 686.3,460.0 688.0,459.6 689.8,459.6 691.6,460.1 693.4,459.7 695.1,460.7 696.9,461.1 698.7,461.5 700.4,461.3 702.2,462.0 704.0,460.2 705.8,460.0 707.5,458.8 709.3,457.0 711.1,457.6 712.8,455.8 714.6,456.2 716.4,456.5 718.2,456.7 719.9,458.6 721.7,458.6 723.5,458.5 725.3,458.0 727.0,458.0 728.8,457.5 730.6,457.3 732.3,457.3 734.1,455.8 735.9,455.8 737.7,454.5 739.4,454.6 741.2,452.6 743.0,452.6 744.7,450.4 746.5,448.6 748.3,446.9 750.1,445.3 751.8,444.7 753.6,443.9 755.4,443.7 757.2,443.6 758.9,443.6 760.7,443.6 762.5,443.9 764.2,443.3 766.0,443.3 767.8,443.3 769.6,443.3 771.3,442.5 773.1,441.0 774.9,439.4 776.6,439.2 778.4,438.7 780.2,437.9 782.0,437.6 783.7,436.7 785.5,436.3 787.3,436.5 789.1,436.4 790.8,436.2 792.6,436.2 794.4,436.6 796.1,436.3 797.9,436.3 799.7,436.1 801.5,435.9 803.2,435.3 805.0,433.5 806.8,433.3 808.5,431.7 810.3,430.8 812.1,430.3 813.9,430.4 815.6,429.3 817.4,430.1 819.2,430.2 820.9,430.1 822.7,432.1 824.5,431.4 826.3,432.6 828.0,432.7 829.8,434.4 831.6,436.1 833.4,436.2 835.1,437.9 836.9,439.1 838.7,439.5 840.4,440.1 842.2,440.1 844.0,441.3 845.8,441.2 847.5,443.0 849.3,444.7 851.1,445.4 852.8,447.1 854.6,447.4 856.4,447.1 858.2,446.9 859.9,446.8 861.7,446.7 863.5,446.6 865.3,446.5 867.0,447.9 868.8,447.7 870.6,447.4 872.3,447.2 874.1,447.2 875.9,446.7 877.7,446.7 879.4,446.6 881.2,446.2 883.0,445.7 884.7,445.4 886.5,444.7 888.3,444.7 890.1,444.5 891.8,444.7 893.6,444.5 895.4,444.6 897.2,444.6 898.9,444.5 900.7,444.4 902.5,444.4 904.2,444.5 906.0,444.2 907.8,443.5 909.6,443.7 911.3,443.8 913.1,443.9 914.9,444.2 916.6,444.7 918.4,444.8 920.2,444.9 922.0,444.8 923.7,444.9 925.5,444.7 927.3,444.6 929.1,444.7 930.8,443.8 932.6,443.7 934.4,443.7 936.1,441.7 937.9,441.7 939.7,442.1 941.5,442.5 943.2,442.1 945.0,440.3 946.8,438.5 948.5,437.6 950.3,436.8 952.1,436.4 953.9,437.5 955.6,437.7 957.4,436.3 959.2,436.2 960.9,434.2 962.7,432.2 964.5,431.4 966.3,429.4 968.0,428.9 969.8,429.4 971.6,429.5 973.4,429.7 975.1,429.8 976.9,429.9 978.7,429.7 980.4,428.2 982.2,428.1 984.0,428.1 985.8,428.0 987.5,427.7 989.3,427.7 991.1,427.6 992.8,427.4 994.6,429.3 996.4,431.6 998.2,432.5 999.9,433.9 1001.7,434.1 1003.5,434.1 1005.3,433.7 1007.0,435.2 1008.8,437.0 1010.6,437.3 1012.3,437.5 1014.1,437.8 1015.9,437.8 1017.7,438.2 1019.4,438.2 1021.2,438.7 1023.0,439.0 1024.7,439.3 1026.5,439.2 1028.3,439.3 1030.1,441.0 1031.8,442.4 1033.6,443.2 1035.4,443.3 1037.2,443.5 1038.9,443.7 1040.7,443.6 1042.5,443.7 1044.2,444.3 1046.0,445.1 1047.8,447.0 1049.6,449.2 1051.3,451.0 1053.1,451.0 1054.9,450.6 1056.6,450.3 1058.4,452.1 1060.2,453.9 1062.0,455.4 1063.7,457.0 1065.5,459.0 1067.3,459.1 1069.1,459.9 1070.8,461.8 1072.6,463.7 1074.4,466.0 1076.1,467.7 1077.9,469.8 1079.7,470.5 1081.5,472.5 1083.2,473.8 1085.0,475.7 1086.8,477.4 1088.5,479.5 1090.3,481.4 1092.1,482.6 1093.9,484.6 1095.6,486.5 1097.4,488.5 1099.2,490.5 1100.9,491.7 1102.7,493.5 1104.5,495.7 1106.3,497.9 1108.0,497.8 1109.8,496.5 1111.6,495.6 1113.4,494.2 1115.1,493.8 1116.9,493.9 1118.7,494.4 1120.4,492.7 1122.2,491.8 1124.0,491.7 1125.8,491.8 1127.5,491.2 1129.3,491.4 1131.1,492.0 1132.8,492.0 1134.6,491.7 1136.4,491.5 1138.2,492.3 1139.9,493.2 1141.7,495.5 1143.5,495.7 1145.3,495.5 1147.0,494.9 1148.8,495.0 1150.6,496.2 1152.3,497.7 1154.1,499.8 1155.9,501.0 1157.7,502.3 1159.4,503.7 1161.2,503.5 1163.0,502.3 1164.7,502.0 1166.5,502.5 1168.3,504.1 1170.1,505.1 1171.8,505.2 1173.6,505.1 1175.4,505.1 1177.2,505.2 1178.9,504.7 1180.7,505.0 1182.5,505.7 1184.2,505.5 1186.0,504.7 1187.8,504.3 1189.6,504.6 1191.3,504.6 1193.1,505.9 1194.9,505.6 1196.6,505.7 1198.4,505.7 1200.2,505.7 1202.0,505.8 1203.7,504.9 1205.5,505.0 1207.3,503.7 1209.1,501.9 1210.8,500.3 1212.6,498.3 1214.4,497.2 1216.1,495.4 1217.9,493.5 1219.7,491.4 1221.5,489.7 1223.2,489.1 1225.0,489.2 1226.8,489.2 1228.5,489.2 1230.3,489.5 1232.1,488.9 1233.9,488.8 1235.6,488.1 1237.4,488.2 1239.2,488.2 1240.9,489.9 1242.7,491.5 1244.5,492.7 1246.3,494.7 1248.0,495.1 1249.8,497.1 1251.6,498.5 1253.4,499.6 1255.1,499.2 1256.9,498.9 1258.7,499.9 1260.4,501.2 1262.2,503.0 1264.0,503.7 1265.8,504.1 1267.5,503.9 1269.3,504.8 1271.1,504.9 1272.8,504.8 1274.6,504.5 1276.4,505.6 1278.2,506.0 1279.9,505.8 1281.7,505.8 1283.5,505.1 1285.3,504.1 1287.0,504.2 1288.8,504.2 1290.6,502.2 1292.3,500.6 1294.1,498.5 1295.9,496.9 1297.7,495.2 1299.4,493.9 1301.2,492.1 1303.0,490.0 1304.7,488.4 1306.5,486.3 1308.3,484.6 1310.1,482.9 1311.8,481.0 1313.6,479.2 1315.4,477.5 1317.2,476.6 1318.9,475.7 1320.7,475.3 1322.5,475.4 1324.2,475.2 1326.0,475.5 1327.8,475.8 1329.6,476.1 1331.3,476.0 1333.1,476.5 1334.9,476.8 1336.6,477.1 1338.4,477.4 1340.2,477.9 1342.0,478.3 1343.7,478.7 1345.5,479.1 1347.3,479.4 1349.1,479.5 1350.8,479.7 1352.6,479.8 1354.4,478.4 1356.1,476.9 1357.9,475.4 1359.7,473.8 1361.5,473.6 1363.2,472.0 1365.0,470.3" fill="none" stroke="#1f77b4" stroke-width="1.6" opacity="0.9"/>
<text x="25" y="437.5" text-anchor="middle" font-size="12" transform="rotate(-90 25 437.5)">mean-64 minus mean-512</text>
<text x="735" y="580" text-anchor="middle" font-size="12">absolute token index</text>
</svg>